<?xml version="1.0" encoding="utf-8"?>
<!-- Generator: Adobe Illustrator 16.0.4, SVG Export Plug-In . SVG Version: 6.00 Build 0)  -->
<!DOCTYPE svg PUBLIC "-//W3C//DTD SVG 1.1//EN" "http://www.w3.org/Graphics/SVG/1.1/DTD/svg11.dtd">
<svg version="1.1" id="Layer_1" xmlns="http://www.w3.org/2000/svg" xmlns:xlink="http://www.w3.org/1999/xlink" x="0px" y="0px"
	 width="1218.9px" height="35.4px" viewBox="0 0 1218.9 35.4" style="enable-background:new 0 0 1218.9 35.4;" xml:space="preserve"
	>
<g>
	<path d="M163,21.3h-14.2h-14.2h-14.2h-14.2H92.1H80.3H78H67.3h-13c-13,0-13,14.2-26,14.2h21.3h4.7h13H78h2.4h11.8h14.2h14.2h14.2
		h14.2H163h14.2h28.3c-14.2,0-14.2-14.2-28.3-14.2H163z"/>
	<path d="M286.3,35.4h13.5h13.5h26.9c-13.5,0-13.5-14.2-26.9-14.2h-13.5h-13.5h-13.5h-13.5h-13.5h-13.5c-13.5,0-13.5,14.2-26.9,14.2
		h26.9h13.5h13.5h13.5H286.3z"/>
	<path d="M425.2,35.4h14.2h14.2h14.2h14.2h14.2h14.2h14.2h14.2h28.3c-14.2,0-14.2-14.2-28.3-14.2h-14.2h-14.2h-14.2h-14.2h-14.2
		h-14.2h-14.2h-14.2H411c-14.2,0-14.2,14.2-28.3,14.2H411H425.2z"/>
	<path d="M54.3,14.2h13h13c13,0,13-14.2,26-14.2h-26h-13h-13h-26C41.3,0,41.3,14.2,54.3,14.2z"/>
	<path d="M148.8,14.2H163c14.2,0,14.2-14.2,28.3-14.2H163h-14.2h-14.2h-28.3c14.2,0,14.2,14.2,28.3,14.2H148.8z"/>
	<path d="M269.3,14.2h14.2c14.2,0,14.2-14.2,28.3-14.2h-28.3h-14.2h-14.2h-28.3c14.2,0,14.2,14.2,28.3,14.2H269.3z"/>
	<path d="M694.5,21.3h-14.2h-14.2H652h-14.2c-1.3,0-2.5,0.1-3.5,0.3c-1.1-0.2-2.3-0.3-3.5-0.3h-14.2c-14.2,0-14.2,14.2-28.3,14.2
		h21.3h7.1h14.2h7.1H652h7.1h7.1h14.2h14.2h14.2H737c-14.2,0-14.2-14.2-28.3-14.2H694.5z"/>
	<path d="M630.7,14.2c14.2,0,14.2-14.2,28.3-14.2h-28.3h-14.2h-28.3c14.2,0,14.2,14.2,28.3,14.2H630.7z"/>
	<path d="M705.8,14.2C721.4,14.2,721.4,0,737,0h-31.2h-15.6h-31.2c15.6,0,15.6,14.2,31.2,14.2H705.8z"/>
	<path d="M850.4,21.3h-14.2H822h-14.2h-14.2c-1.3,0-2.5,0.1-3.5,0.3c-1.1-0.2-2.3-0.3-3.5-0.3h-14.2c-14.2,0-14.2,14.2-28.3,14.2
		h21.3h7.1h14.2h7.1h14.2h7.1h7.1h14.2h14.2h14.2h28.3c-14.2,0-14.2-14.2-28.3-14.2H850.4z"/>
	<path d="M786.6,14.2C800.8,14.2,800.8,0,815,0h-28.3h-14.2h-28.3c14.2,0,14.2,14.2,28.3,14.2H786.6z"/>
	<path d="M861.7,14.2c15.6,0,15.6-14.2,31.2-14.2h-31.2h-15.6H815c15.6,0,15.6,14.2,31.2,14.2H861.7z"/>
	<path d="M942.5,35.4h14.2H985c-14.2,0-14.2-14.2-28.3-14.2h-14.2h-14.2c-14.2,0-14.2,14.2-28.3,14.2h28.3H942.5z"/>
	<path d="M942.5,14.2h14.2C970.9,14.2,970.9,0,985,0h-28.3h-14.2h-14.2H900c14.2,0,14.2,14.2,28.3,14.2H942.5z"/>
	<path d="M463.7,14.2h15.2H494c15.2,0,15.2-14.2,30.4-14.2H494h-15.2h-15.2h-15.2h-30.4c15.2,0,15.2,14.2,30.4,14.2H463.7z"/>
	<path d="M1040.1,35.4h13.6h13.6h13.6h13.6h13.6h13.6h13.6h13.6h27.3c-13.6,0-13.6-14.2-27.3-14.2h-13.6h-13.6h-13.6h-13.6H1081
		h-13.6h-13.6h-13.6h-13.6c-13.6,0-13.6,14.2-27.3,14.2h27.3H1040.1z"/>
	<path d="M1080.2,14.2h15.2h15.2c15.2,0,15.2-14.2,30.4-14.2h-30.4h-15.2h-15.2H1065h-30.4c15.2,0,15.2,14.2,30.4,14.2H1080.2z"/>
</g>
</svg>
