<?xml version="1.0" encoding="utf-8"?>
<!-- Generator: Adobe Illustrator 16.0.4, SVG Export Plug-In . SVG Version: 6.00 Build 0)  -->
<!DOCTYPE svg PUBLIC "-//W3C//DTD SVG 1.1//EN" "http://www.w3.org/Graphics/SVG/1.1/DTD/svg11.dtd">
<svg version="1.1" id="Layer_1" xmlns="http://www.w3.org/2000/svg" xmlns:xlink="http://www.w3.org/1999/xlink" x="0px" y="0px"
	 width="1218.9px" height="35.4px" viewBox="0 0 1218.9 35.4" style="enable-background:new 0 0 1218.9 35.4;" xml:space="preserve"
	>
<g>
	<path d="M54.3,14.2h13h13c13,0,13-14.2,26-14.2h-26h-13h-13h-26C41.3,0,41.3,14.2,54.3,14.2z"/>
	<path d="M297.6,0h-28.3c14.2,0,14.2,14.2,28.3,14.2h14.2C326,14.2,326,0,340.2,0h-28.3H297.6z"/>
	<path d="M422.4,14.2C438,14.2,438,0,453.5,0h-31.2h-15.6h-31.2c15.6,0,15.6,14.2,31.2,14.2H422.4z"/>
	<path d="M527.2,0h-31.2c15.6,0,15.6,14.2,31.2,14.2h15.6C558.4,14.2,558.4,0,574,0h-31.2H527.2z"/>
	<path d="M194.9,0h-15.4h-30.7c15.4,0,15.4,14.2,30.7,14.2h15.4h15.4c15.4,0,15.4-14.2,30.7-14.2h-30.7H194.9z"/>
	<path d="M70.9,21.3H56.7c-14.2,0-14.2,14.2-28.3,14.2h28.3h14.2H85h28.3c-14.2,0-14.2-14.2-28.3-14.2H70.9z"/>
	<path d="M191.3,21.3h-14.2c-14.2,0-14.2,14.2-28.3,14.2h28.3h14.2h14.2h28.3c-14.2,0-14.2-14.2-28.3-14.2H191.3z"/>
	<path d="M311.8,21.3h-14.2c-14.2,0-14.2,14.2-28.3,14.2h28.3h14.2H326h28.3c-14.2,0-14.2-14.2-28.3-14.2H311.8z"/>
	<path d="M403.9,35.4h14.2h28.3c-14.2,0-14.2-14.2-28.3-14.2h-14.2h-14.2c-14.2,0-14.2,14.2-28.3,14.2h28.3H403.9z"/>
	<path d="M545.7,21.3h-14.2c-14.2,0-14.2,14.2-28.3,14.2h28.3h14.2h14.2h28.3c-14.2,0-14.2-14.2-28.3-14.2H545.7z"/>
	<path d="M634.3,0h-15.4h-30.7c15.4,0,15.4,14.2,30.7,14.2h15.4h15.4C665,14.2,665,0,680.3,0h-30.7H634.3z"/>
	<path d="M630.7,21.3h-14.2c-14.2,0-14.2,14.2-28.3,14.2h28.3h14.2h14.2h28.3c-14.2,0-14.2-14.2-28.3-14.2H630.7z"/>
	<path d="M790.2,0h-15.4h-30.7c15.4,0,15.4,14.2,30.7,14.2h15.4h15.4c15.4,0,15.4-14.2,30.7-14.2h-30.7H790.2z"/>
	<path d="M786.6,21.3h-14.2c-14.2,0-14.2,14.2-28.3,14.2h28.3h14.2h14.2h28.3c-14.2,0-14.2-14.2-28.3-14.2H786.6z"/>
	<path d="M1055.9,35.4h28.3c-14.2,0-14.2-14.2-28.3-14.2h-14.2h-14.2c-14.2,0-14.2,14.2-28.3,14.2h28.3h14.2H1055.9z"/>
	<path d="M942.5,35.4h14.2H985c-14.2,0-14.2-14.2-28.3-14.2h-14.2h-14.2c-14.2,0-14.2,14.2-28.3,14.2h28.3H942.5z"/>
	<path d="M942.5,14.2h14.2C970.9,14.2,970.9,0,985,0h-28.3h-14.2h-14.2H900c14.2,0,14.2,14.2,28.3,14.2H942.5z"/>
	<path d="M1038.9,14.2c15.6,0,15.6-14.2,31.2-14.2h-31.2h-15.6h-31.2c15.6,0,15.6,14.2,31.2,14.2H1038.9z"/>
	<path d="M1143.8,0h-31.2c15.6,0,15.6,14.2,31.2,14.2h15.6C1175,14.2,1175,0,1190.5,0h-31.2H1143.8z"/>
	<path d="M1171.7,21.3h-13h-13c-13,0-13,14.2-26,14.2h26h13h13h26C1184.6,35.4,1184.6,21.3,1171.7,21.3z"/>
</g>
</svg>
