<?xml version="1.0" encoding="utf-8"?>
<!-- Generator: Adobe Illustrator 16.0.4, SVG Export Plug-In . SVG Version: 6.00 Build 0)  -->
<!DOCTYPE svg PUBLIC "-//W3C//DTD SVG 1.1//EN" "http://www.w3.org/Graphics/SVG/1.1/DTD/svg11.dtd">
<svg version="1.1" id="Layer_1" xmlns="http://www.w3.org/2000/svg" xmlns:xlink="http://www.w3.org/1999/xlink" x="0px" y="0px"
	 width="1218.9px" height="35.4px" viewBox="0 0 1218.9 35.4" style="enable-background:new 0 0 1218.9 35.4;" xml:space="preserve"
	>
<g>
	<path d="M70.9,21.3H56.7c-14.2,0-14.2,14.2-28.3,14.2h28.3h14.2H85h28.3c-14.2,0-14.2-14.2-28.3-14.2H70.9z"/>
	<path d="M70.9,0H56.7H28.3c14.2,0,14.2,14.2,28.3,14.2h14.2H85C99.2,14.2,99.2,0,113.4,0H85H70.9z"/>
	<path d="M191.3,21.3h-14.2c-14.2,0-14.2,14.2-28.3,14.2h28.3h14.2h14.2h28.3c-14.2,0-14.2-14.2-28.3-14.2H191.3z"/>
	<path d="M191.3,0h-14.2h-28.3C163,0,163,14.2,177.2,14.2h14.2h14.2c14.2,0,14.2-14.2,28.3-14.2h-28.3H191.3z"/>
	<path d="M311.8,21.3h-14.2c-14.2,0-14.2,14.2-28.3,14.2h28.3h14.2H326h28.3c-14.2,0-14.2-14.2-28.3-14.2H311.8z"/>
	<path d="M311.8,0h-14.2h-28.3c14.2,0,14.2,14.2,28.3,14.2h14.2H326c14.2,0,14.2-14.2,28.3-14.2H326H311.8z"/>
	<path d="M630.7,21.3h-14.2c-14.2,0-14.2,14.2-28.3,14.2h28.3h14.2h14.2h28.3c-14.2,0-14.2-14.2-28.3-14.2H630.7z"/>
	<path d="M630.7,0h-14.2h-28.3c14.2,0,14.2,14.2,28.3,14.2h14.2h14.2c14.2,0,14.2-14.2,28.3-14.2h-28.3H630.7z"/>
	<path d="M786.6,21.3h-14.2c-14.2,0-14.2,14.2-28.3,14.2h28.3h14.2h14.2h28.3c-14.2,0-14.2-14.2-28.3-14.2H786.6z"/>
	<path d="M786.6,0h-14.2h-28.3c14.2,0,14.2,14.2,28.3,14.2h14.2h14.2C815,14.2,815,0,829.1,0h-28.3H786.6z"/>
	<path d="M942.5,21.3h-14.2c-14.2,0-14.2,14.2-28.3,14.2h28.3h14.2h14.2H985c-14.2,0-14.2-14.2-28.3-14.2H942.5z"/>
	<path d="M942.5,0h-14.2H900c14.2,0,14.2,14.2,28.3,14.2h14.2h14.2C970.9,14.2,970.9,0,985,0h-28.3H942.5z"/>
	<path d="M1142.6,0H1129h-13.6h-13.6h-13.6h-13.6h-13.6h-13.6h-13.6h-27.3c13.6,0,13.6,14.2,27.3,14.2h13.6h13.6h13.6h13.6h13.6
		h13.6h13.6h13.6h13.6c13.6,0,13.6-14.2,27.3-14.2h-27.3H1142.6z"/>
	<path d="M1102.5,21.3h-15.2h-15.2c-15.2,0-15.2,14.2-30.4,14.2h30.4h15.2h15.2h15.2h30.4c-15.2,0-15.2-14.2-30.4-14.2H1102.5z"/>
	<path d="M524.4,0h-14.2h-14.2h-14.2h-14.2h-14.2h-14.2h-14.2H411h-28.3c14.2,0,14.2,14.2,28.3,14.2h14.2h14.2h14.2h14.2h14.2h14.2
		h14.2h14.2h14.2c14.2,0,14.2-14.2,28.3-14.2h-28.3H524.4z"/>
	<path d="M478.9,21.3h-15.2h-15.2c-15.2,0-15.2,14.2-30.4,14.2h30.4h15.2h15.2H494h30.4c-15.2,0-15.2-14.2-30.4-14.2H478.9z"/>
</g>
</svg>
