<?xml version="1.0" encoding="utf-8"?>
<!-- Generator: Adobe Illustrator 16.0.4, SVG Export Plug-In . SVG Version: 6.00 Build 0)  -->
<!DOCTYPE svg PUBLIC "-//W3C//DTD SVG 1.1//EN" "http://www.w3.org/Graphics/SVG/1.1/DTD/svg11.dtd">
<svg version="1.1" id="Layer_1" xmlns="http://www.w3.org/2000/svg" xmlns:xlink="http://www.w3.org/1999/xlink" x="0px" y="0px"
	 width="1218.9px" height="35.4px" viewBox="0 0 1218.9 35.4" style="enable-background:new 0 0 1218.9 35.4;" xml:space="preserve"
	>
<g>
	<path d="M70.9,0H56.7H28.3c14.2,0,14.2,14.2,28.3,14.2h14.2H85C99.2,14.2,99.2,0,113.4,0H85H70.9z"/>
	<path d="M70.9,21.3H56.7c-14.2,0-14.2,14.2-28.3,14.2h28.3h14.2H85h28.3c-14.2,0-14.2-14.2-28.3-14.2H70.9z"/>
	<path d="M191.3,0h-14.2h-28.3C163,0,163,14.2,177.2,14.2h14.2h14.2c14.2,0,14.2-14.2,28.3-14.2h-28.3H191.3z"/>
	<path d="M191.3,21.3h-14.2c-14.2,0-14.2,14.2-28.3,14.2h28.3h14.2h14.2h28.3c-14.2,0-14.2-14.2-28.3-14.2H191.3z"/>
	<path d="M403.9,14.2h14.2c14.2,0,14.2-14.2,28.3-14.2h-28.3h-14.2h-14.2h-28.3c14.2,0,14.2,14.2,28.3,14.2H403.9z"/>
	<path d="M545.7,0h-14.2h-28.3c14.2,0,14.2,14.2,28.3,14.2h14.2h14.2C574,14.2,574,0,588.2,0h-28.3H545.7z"/>
	<path d="M311.8,0h-14.2h-28.3c14.2,0,14.2,14.2,28.3,14.2h14.2H326c14.2,0,14.2-14.2,28.3-14.2H326H311.8z"/>
	<path d="M311.8,21.3h-14.2c-14.2,0-14.2,14.2-28.3,14.2h28.3h14.2H326h28.3c-14.2,0-14.2-14.2-28.3-14.2H311.8z"/>
	<path d="M630.7,0h-14.2h-28.3c14.2,0,14.2,14.2,28.3,14.2h14.2h14.2c14.2,0,14.2-14.2,28.3-14.2h-28.3H630.7z"/>
	<path d="M630.7,21.3h-14.2c-14.2,0-14.2,14.2-28.3,14.2h28.3h14.2h14.2h28.3c-14.2,0-14.2-14.2-28.3-14.2H630.7z"/>
	<path d="M786.6,0h-14.2h-28.3c14.2,0,14.2,14.2,28.3,14.2h14.2h14.2C815,14.2,815,0,829.1,0h-28.3H786.6z"/>
	<path d="M786.6,21.3h-14.2c-14.2,0-14.2,14.2-28.3,14.2h28.3h14.2h14.2h28.3c-14.2,0-14.2-14.2-28.3-14.2H786.6z"/>
	<path d="M942.5,0h-14.2H900c14.2,0,14.2,14.2,28.3,14.2h14.2h14.2C970.9,14.2,970.9,0,985,0h-28.3H942.5z"/>
	<path d="M942.5,21.3h-14.2c-14.2,0-14.2,14.2-28.3,14.2h28.3h14.2h14.2H985c-14.2,0-14.2-14.2-28.3-14.2H942.5z"/>
	<path d="M1140.9,14.2h14.2c14.2,0,14.2-14.2,28.3-14.2h-28.3h-14.2h-14.2h-28.3c14.2,0,14.2,14.2,28.3,14.2H1140.9z"/>
	<path d="M1143.8,21.3c-15.6,0-15.6,14.2-31.2,14.2h31.2h15.6h31.2c-15.6,0-15.6-14.2-31.2-14.2H1143.8z"/>
	<path d="M1031.8,14.2c15.6,0,15.6-14.2,31.2-14.2h-31.2h-15.6H985c15.6,0,15.6,14.2,31.2,14.2H1031.8z"/>
	<path d="M1038.9,35.4h31.2c-15.6,0-15.6-14.2-31.2-14.2h-15.6c-15.6,0-15.6,14.2-31.2,14.2h31.2H1038.9z"/>
	<path d="M527.2,21.3c-15.6,0-15.6,14.2-31.2,14.2h31.2h15.6H574c-15.6,0-15.6-14.2-31.2-14.2H527.2z"/>
	<path d="M422.4,35.4h31.2c-15.6,0-15.6-14.2-31.2-14.2h-15.6c-15.6,0-15.6,14.2-31.2,14.2h31.2H422.4z"/>
</g>
</svg>
