<?xml version="1.0" encoding="utf-8"?>
<!-- Generator: Adobe Illustrator 16.0.4, SVG Export Plug-In . SVG Version: 6.00 Build 0)  -->
<!DOCTYPE svg PUBLIC "-//W3C//DTD SVG 1.1//EN" "http://www.w3.org/Graphics/SVG/1.1/DTD/svg11.dtd">
<svg version="1.1" id="Layer_1" xmlns="http://www.w3.org/2000/svg" xmlns:xlink="http://www.w3.org/1999/xlink" x="0px" y="0px"
	 width="1218.9px" height="35.4px" viewBox="0 0 1218.9 35.4" enable-background="new 0 0 1218.9 35.4" xml:space="preserve">
<g>
	<path fill="#FFFFFF" d="M54.3,14.2h13h13c13,0,13-14.2,26-14.2h-26h-13h-13h-26C41.3,0,41.3,14.2,54.3,14.2z"/>
	<path fill="#FFFFFF" d="M297.6,0H269.3c14.2,0,14.2,14.2,28.301,14.2h14.2c14.2,0,14.2-14.2,28.399-14.2h-28.3H297.6z"/>
	<path fill="#FFFFFF" d="M422.4,14.2c15.601,0,15.601-14.2,31.101-14.2h-31.2H406.7h-31.2C391.1,0,391.1,14.2,406.7,14.2H422.4z"/>
	<path fill="#FFFFFF" d="M527.2,0h-31.199c15.6,0,15.6,14.2,31.199,14.2h15.601c15.6,0,15.6-14.2,31.2-14.2h-31.2H527.2z"/>
	<path fill="#FFFFFF" d="M194.9,0h-15.4h-30.7c15.4,0,15.4,14.2,30.7,14.2h15.4H210.3C225.7,14.2,225.7,0,241,0h-30.7H194.9z"/>
	<path fill="#FFFFFF" d="M70.9,21.3H56.7c-14.2,0-14.2,14.2-28.3,14.2h28.3h14.2H85h28.3C99.1,35.5,99.1,21.3,85,21.3H70.9z"/>
	<path fill="#FFFFFF" d="M191.3,21.3H177.1c-14.2,0-14.2,14.2-28.301,14.2H177.1H191.3h14.2h28.3c-14.199,0-14.199-14.2-28.3-14.2
		H191.3z"/>
	<path fill="#FFFFFF" d="M311.801,21.3h-14.2c-14.2,0-14.2,14.2-28.301,14.2H297.6h14.2h14.2h28.3c-14.2,0-14.2-14.2-28.3-14.2
		H311.801z"/>
	<path fill="#FFFFFF" d="M403.9,35.4h14.2h28.3c-14.2,0-14.2-14.2-28.3-14.2h-14.2h-14.2c-14.2,0-14.2,14.2-28.3,14.2h28.3H403.9z"
		/>
	<path fill="#FFFFFF" d="M545.7,21.3h-14.199c-14.2,0-14.2,14.2-28.301,14.2h28.301H545.7h14.2h28.3
		c-14.199,0-14.199-14.2-28.3-14.2H545.7z"/>
	<path fill="#FFFFFF" d="M634.301,0h-15.4h-30.7c15.4,0,15.4,14.2,30.7,14.2h15.4H649.7c15.301,0,15.301-14.2,30.601-14.2h-30.7
		H634.301z"/>
	<path fill="#FFFFFF" d="M630.7,21.3h-14.199c-14.2,0-14.2,14.2-28.301,14.2h28.301H630.7h14.2h28.3
		c-14.199,0-14.199-14.2-28.3-14.2H630.7z"/>
	<path fill="#FFFFFF" d="M790.2,0h-15.399h-30.7c15.4,0,15.4,14.2,30.7,14.2H790.2h15.4c15.4,0,15.4-14.2,30.7-14.2h-30.7H790.2z"/>
	<path fill="#FFFFFF" d="M786.6,21.3h-14.2c-14.2,0-14.2,14.2-28.3,14.2h28.3h14.2h14.2h28.3c-14.2,0-14.2-14.2-28.3-14.2H786.6z"/>
	<path fill="#FFFFFF" d="M1055.9,35.4h28.3c-14.199,0-14.199-14.2-28.3-14.2h-14.2h-14.199c-14.2,0-14.2,14.2-28.301,14.2h28.301
		h14.199H1055.9z"/>
	<path fill="#FFFFFF" d="M942.501,35.4H956.7h28.301c-14.2,0-14.2-14.2-28.301-14.2h-14.199h-14.2c-14.2,0-14.2,14.2-28.3,14.2h28.3
		H942.501z"/>
	<path fill="#FFFFFF" d="M942.501,14.2H956.7c14.2,0,14.2-14.2,28.301-14.2H956.7h-14.199h-14.2h-28.3
		c14.199,0,14.199,14.2,28.3,14.2H942.501z"/>
	<path fill="#FFFFFF" d="M1038.9,14.2c15.601,0,15.601-14.2,31.2-14.2h-31.2h-15.6h-31.2c15.6,0,15.6,14.2,31.2,14.2H1038.9z"/>
	<path fill="#FFFFFF" d="M1143.801,0h-31.2c15.6,0,15.6,14.2,31.2,14.2h15.6c15.601,0,15.601-14.2,31.101-14.2h-31.2H1143.801z"/>
	<path fill="#FFFFFF" d="M1171.7,21.3h-13h-13c-13,0-13,14.2-26,14.2h26h13h13h26C1184.6,35.4,1184.6,21.3,1171.7,21.3z"/>
</g>
</svg>
