<?xml version="1.0" encoding="utf-8"?>
<!-- Generator: Adobe Illustrator 16.0.4, SVG Export Plug-In . SVG Version: 6.00 Build 0)  -->
<!DOCTYPE svg PUBLIC "-//W3C//DTD SVG 1.1//EN" "http://www.w3.org/Graphics/SVG/1.1/DTD/svg11.dtd">
<svg version="1.1" id="Layer_1" xmlns="http://www.w3.org/2000/svg" xmlns:xlink="http://www.w3.org/1999/xlink" x="0px" y="0px"
	 width="1218.9px" height="35.4px" viewBox="0 0 1218.9 35.4" enable-background="new 0 0 1218.9 35.4" xml:space="preserve">
<g>
	<path fill="#FFFFFF" d="M70.9,21.3H56.7c-14.2,0-14.2,14.2-28.3,14.2h28.3h14.2H85h28.3C99.1,35.5,99.1,21.3,85,21.3H70.9z"/>
	<path fill="#FFFFFF" d="M70.9,0H56.7H28.3C42.5,0,42.5,14.2,56.6,14.2H70.8H85C99.2,14.2,99.2,0,113.4,0H85H70.9z"/>
	<path fill="#FFFFFF" d="M191.3,21.3H177.1c-14.2,0-14.2,14.2-28.301,14.2H177.1H191.3h14.2h28.3c-14.199,0-14.199-14.2-28.3-14.2
		H191.3z"/>
	<path fill="#FFFFFF" d="M191.3,0H177.1H148.8C163,0,163,14.2,177.2,14.2h14.2h14.2C219.8,14.2,219.8,0,233.9,0h-28.3H191.3z"/>
	<path fill="#FFFFFF" d="M311.801,21.3h-14.2c-14.2,0-14.2,14.2-28.301,14.2H297.6h14.2h14.2h28.3c-14.2,0-14.2-14.2-28.3-14.2
		H311.801z"/>
	<path fill="#FFFFFF" d="M311.801,0h-14.2H269.3c14.2,0,14.2,14.2,28.301,14.2h14.2h14.2C340.2,14.2,340.2,0,354.301,0h-28.3
		H311.801z"/>
	<path fill="#FFFFFF" d="M630.7,21.3h-14.199c-14.2,0-14.2,14.2-28.301,14.2h28.301H630.7h14.2h28.3
		c-14.199,0-14.199-14.2-28.3-14.2H630.7z"/>
	<path fill="#FFFFFF" d="M630.7,0h-14.199H588.2c14.2,0,14.2,14.2,28.301,14.2H630.7h14.2c14.2,0,14.2-14.2,28.3-14.2h-28.3H630.7z"
		/>
	<path fill="#FFFFFF" d="M786.6,21.3h-14.2c-14.2,0-14.2,14.2-28.3,14.2h28.3h14.2h14.2h28.3c-14.2,0-14.2-14.2-28.3-14.2H786.6z"/>
	<path fill="#FFFFFF" d="M786.6,0h-14.2h-28.3c14.2,0,14.2,14.2,28.3,14.2h14.2h14.2c14.2,0,14.2-14.2,28.3-14.2h-28.3H786.6z"/>
	<path fill="#FFFFFF" d="M942.501,21.3h-14.2c-14.2,0-14.2,14.2-28.3,14.2h28.3h14.2H956.7h28.301c-14.2,0-14.2-14.2-28.301-14.2
		H942.501z"/>
	<path fill="#FFFFFF" d="M942.501,0h-14.2h-28.3c14.199,0,14.199,14.2,28.3,14.2h14.2H956.7c14.2,0,14.2-14.2,28.301-14.2H956.7
		H942.501z"/>
	<path fill="#FFFFFF" d="M1142.6,0h-13.6H1115.4h-13.6H1088.2h-13.6h-13.6H1047.4h-13.6h-27.3c13.6,0,13.6,14.2,27.3,14.2h13.6
		h13.601h13.6h13.6h13.601h13.6h13.601h13.6h13.6c13.601,0,13.601-14.2,27.301-14.2H1156.2H1142.6z"/>
	<path fill="#FFFFFF" d="M1102.501,21.3h-15.2h-15.2c-15.2,0-15.2,14.2-30.4,14.2h30.4h15.2h15.2h15.199h30.4
		c-15.2,0-15.2-14.2-30.4-14.2H1102.501z"/>
	<path fill="#FFFFFF" d="M524.4,0h-14.2h-14.199h-14.2h-14.2h-14.2h-14.2H425h-13.999H382.7c14.2,0,14.2,14.2,28.301,14.2H425.2
		h14.2h14.2h14.2h14.2H496.2h14.2h14.2h14.2c14.2,0,14.2-14.2,28.3-14.2h-28.3H524.4z"/>
	<path fill="#FFFFFF" d="M478.9,21.3h-15.2h-15.2c-15.199,0-15.199,14.2-30.399,14.2H448.5h15.2h15.2h15.101H524.4
		c-15.2,0-15.2-14.2-30.399-14.2H478.9z"/>
</g>
</svg>
