<?xml version="1.0" encoding="utf-8"?>
<!-- Generator: Adobe Illustrator 16.0.4, SVG Export Plug-In . SVG Version: 6.00 Build 0)  -->
<!DOCTYPE svg PUBLIC "-//W3C//DTD SVG 1.1//EN" "http://www.w3.org/Graphics/SVG/1.1/DTD/svg11.dtd">
<svg version="1.1" id="Layer_1" xmlns="http://www.w3.org/2000/svg" xmlns:xlink="http://www.w3.org/1999/xlink" x="0px" y="0px"
	 width="1218.9px" height="35.4px" viewBox="0 0 1218.9 35.4" enable-background="new 0 0 1218.9 35.4" xml:space="preserve">
<g>
	<path fill="#FFFFFF" d="M163,21.3h-14.2H134.6h-14.2h-14.2H92.1H80.3H78H67.3h-13c-13,0-13,14.2-26,14.2H49.6H54.3h13H78h2.4h11.8
		h14.2h14.2H134.8H149h14h14.2h28.3c-14.2,0-14.2-14.2-28.3-14.2H163z"/>
	<path fill="#FFFFFF" d="M286.3,35.4h13.5h13.501H340.2c-13.5,0-13.5-14.2-26.899-14.2H299.8h-13.5h-13.5h-13.5h-13.5h-13.5
		c-13.5,0-13.5,14.2-26.899,14.2H232.3h13.5h13.5h13.5H286.3z"/>
	<path fill="#FFFFFF" d="M425.2,35.4h14.2h14.2h14.2h14.2H496.2h14.2h14.2h14.2h28.3c-14.2,0-14.2-14.2-28.3-14.2h-14.2h-14.2h-14.2
		h-14.199h-14.2h-14.2h-14.2h-14.2h-14.199c-14.2,0-14.2,14.2-28.301,14.2h28.301H425.2z"/>
	<path fill="#FFFFFF" d="M54.3,14.2h13h13c13,0,13-14.2,26-14.2h-26h-13h-13h-26C41.3,0,41.3,14.2,54.3,14.2z"/>
	<path fill="#FFFFFF" d="M148.8,14.2H163c14.2,0,14.2-14.2,28.3-14.2H163h-14.2H134.6H106.3c14.2,0,14.2,14.2,28.301,14.2H148.8z"/>
	<path fill="#FFFFFF" d="M269.3,14.2h14.2c14.2,0,14.2-14.2,28.301-14.2H283.5h-14.2H255.1H226.8C241,0,241,14.2,255.1,14.2H269.3z"
		/>
	<path fill="#FFFFFF" d="M694.501,21.3h-14.2h-14.2h-14.1h-14.2c-1.3,0-2.5,0.101-3.5,0.301c-1.101-0.2-2.3-0.301-3.5-0.301h-14.2
		c-14.2,0-14.2,14.2-28.3,14.2h21.3h7.1h14.2h7.1h14.001h7.1h7.1h14.2h14.2h14.2h28.2c-14.2,0-14.2-14.2-28.301-14.2H694.501z"/>
	<path fill="#FFFFFF" d="M630.7,14.2c14.2,0,14.2-14.2,28.301-14.2H630.7h-14.199H588.2c14.2,0,14.2,14.2,28.301,14.2H630.7z"/>
	<path fill="#FFFFFF" d="M705.801,14.2c15.6,0,15.6-14.2,31.2-14.2h-31.2H690.2h-31.199c15.6,0,15.6,14.2,31.199,14.2H705.801z"/>
	<path fill="#FFFFFF" d="M850.4,21.3h-14.2h-14.199h-14.2h-14.2c-1.3,0-2.5,0.101-3.5,0.301c-1.1-0.2-2.3-0.301-3.5-0.301h-14.2
		c-14.2,0-14.2,14.2-28.3,14.2h21.3h7.1h14.2h7.101H808h7.101h7.1h14.2h14.2h14.2h28.3c-14.2,0-14.2-14.2-28.3-14.2H850.4z"/>
	<path fill="#FFFFFF" d="M786.6,14.2c14.2,0,14.2-14.2,28.4-14.2H786.7h-14.199H744.2c14.2,0,14.2,14.2,28.301,14.2H786.6z"/>
	<path fill="#FFFFFF" d="M861.7,14.2c15.601,0,15.601-14.2,31.2-14.2h-31.2h-15.6h-31.1c15.6,0,15.6,14.2,31.199,14.2H861.7z"/>
	<path fill="#FFFFFF" d="M942.501,35.4H956.7h28.301c-14.2,0-14.2-14.2-28.301-14.2h-14.199h-14.2c-14.2,0-14.2,14.2-28.3,14.2h28.3
		H942.501z"/>
	<path fill="#FFFFFF" d="M942.501,14.2H956.7c14.2,0,14.2-14.2,28.301-14.2H956.7h-14.199h-14.2h-28.3
		c14.199,0,14.199,14.2,28.3,14.2H942.501z"/>
	<path fill="#FFFFFF" d="M463.7,14.2h15.2h15.101C509.2,14.2,509.2,0,524.4,0h-30.399h-15.2h-15.2h-15.2H418
		c15.2,0,15.2,14.2,30.4,14.2H463.7z"/>
	<path fill="#FFFFFF" d="M1040.1,35.4h13.6h13.601h13.6h13.6h13.601h13.6h13.6h13.601h27.3c-13.6,0-13.6-14.2-27.3-14.2H1135.3
		h-13.6h-13.6H1094.5h-13.499H1067.4h-13.6H1040.2h-13.6c-13.6,0-13.6,14.2-27.3,14.2h27.3H1040.1z"/>
	<path fill="#FFFFFF" d="M1080.2,14.2h15.2h15.2C1125.8,14.2,1125.8,0,1141,0H1110.6h-15.2h-15.2h-15.199h-30.4
		c15.2,0,15.2,14.2,30.4,14.2H1080.2z"/>
</g>
</svg>
