<?xml version="1.0" encoding="utf-8"?>
<!-- Generator: Adobe Illustrator 16.0.4, SVG Export Plug-In . SVG Version: 6.00 Build 0)  -->
<!DOCTYPE svg PUBLIC "-//W3C//DTD SVG 1.1//EN" "http://www.w3.org/Graphics/SVG/1.1/DTD/svg11.dtd">
<svg version="1.1" id="Layer_1" xmlns="http://www.w3.org/2000/svg" xmlns:xlink="http://www.w3.org/1999/xlink" x="0px" y="0px"
	 width="283.5px" height="283.5px" viewBox="0 0 283.5 283.5" style="enable-background:new 0 0 283.5 283.5;" xml:space="preserve"
	>
<style type="text/css">
<![CDATA[
	.st0{fill:#FFFFFF;}
]]>
</style>
<g>
	<path class="st0" d="M139.2,0.8C62.7,2.1,0.1,64.7,0.8,143.2c0.7,77.7,64.5,141.1,143.9,139.5c76.3-1.5,138.4-64,138-141.8
		C282.3,63,218.5-0.5,139.2,0.8z M139.6,281.6C64.4,280.5,2.3,219.5,2,142.3C1.6,63.8,65.9,0.8,144,2
		c75.2,1.2,137.7,62.4,137.5,140.2C281.3,220.5,217.2,282.8,139.6,281.6z"/>
	<path class="st0" d="M143.3,8.9C68.8,8.3,9.1,67.4,8.8,141.7c-0.3,72.6,59.1,132.6,131.6,133.1c73.4,0.5,132.5-57.6,134.2-129.6
		C276.4,69.8,216.3,9.4,143.3,8.9z M142.8,272.3c-72.8,0.5-131.5-58-131.6-130.4C11.1,70,69.8,11.1,141.4,11.2
		c72.4,0.1,130.9,58.4,130.9,130.6C272.3,212.9,215.1,271.8,142.8,272.3z"/>
	<path class="st0" d="M48,141.8c0.1,52.3,42.2,94.1,94.9,93.7c52.6-0.4,94-44.4,92.6-96.4c-1.4-49.2-41.7-91.3-94.6-91.1
		C89.9,48.2,47.9,90.5,48,141.8z M141.3,50.4c51.7-0.2,92.2,42.2,91.7,91.5c0.1,50.2-40.8,91.1-91,91.2c-50.5,0-91.7-40.9-91.6-91.3
		C50.5,90.6,91.8,50.7,141.3,50.4z"/>
	<path class="st0" d="M21.3,130.4c5.5,1.3,10.9,2.6,16.3,3.8c1.7,0.4,2.8,0.9,2.4,2.9c-0.1,0.3,0.2,0.8,0.3,1.1c0.1,0,0.2,0,0.3-0.1
		c0.5-2.8,1-5.6,1.5-8.4c-0.2,0-0.4-0.1-0.5-0.1c-0.2,0.7-0.3,1.5-0.7,2c-0.5,0.6-1.3,1.4-1.8,1.4c-5.2-0.8-10.4-1.8-15.6-2.7
		c0-0.3,0-0.6,0-0.9c6.5-1.5,13-3.1,19.7-4.7c-5.5-3.5-10.9-6.9-16.2-10.3c0.1-0.2,0.2-0.3,0.2-0.5c4,0.7,8,1.5,12.1,2.2
		c3.5,0.6,3.5,0.5,4.1,3.9c0,0.1,0.2,0.1,0.4,0.1c0.6-3.2,1.2-6.4,1.7-9.6c-0.6,0.2-0.8,0.6-0.9,0.9c-0.5,2.1-1.7,2.5-3.8,2.1
		c-4.6-0.9-9.3-1.6-13.9-2.4c-1.6-0.3-2.5-0.9-2.2-2.7c0.1-0.5-0.1-1.1-0.1-1.6c-0.7,1.1-0.8,2.1-1.2,3.1c-0.8,2.2-0.1,3.5,2.1,4.6
		c4.3,2.4,8.3,5.2,12.5,7.8c-0.1,0.2-0.1,0.4-0.2,0.6c-4.8,1.2-9.5,2.6-14.3,3.6c-2.5,0.5-3.7,1.5-3.7,4.1c0,1.1-0.3,2.2-0.5,3.3
		c0.2,0,0.4,0,0.5,0.1C20.4,132.9,20.8,131.7,21.3,130.4z"/>
	<path class="st0" d="M260.7,145.4c-4.5-0.9-9-1.6-13.5-2.2c-2-0.3-3.9-0.6-3.4-3.4c0-0.1-0.3-0.3-0.6-0.7c-0.4,3.1-0.7,5.9-1,8.7
		c0.6-0.4,0.9-0.9,0.9-1.4c0.1-2,1.2-2.6,3-2.3c1.1,0.2,2.3,0.2,3.5,0.4c3.7,0.5,7.4,1.1,11.1,1.6c0,0.2,0,0.5,0,0.7
		c-6.4,1.9-12.7,3.9-19.3,5.9c5.8,3.2,11.4,6.3,17,9.3c-0.1,0.2-0.1,0.3-0.2,0.5c-4.2-0.5-8.4-1.2-12.7-1.5c-2.4-0.2-4.1-0.7-4-3.5
		c0,0-0.2-0.1-0.5-0.2c-0.4,3.2-0.7,6.3-1.1,9.5c0.6-0.3,0.8-0.6,0.8-1c0.3-1.9,1.4-2.4,3.3-2.2c4.3,0.6,8.7,0.9,13,1.3
		c3.3,0.3,3.3,0.3,3.6,3.6c0,0.2,0.2,0.5,0.2,0.7c0.2,0,0.3,0,0.5,0c0.2-1.6,0.3-3.2,0.6-4.8c0.2-1.3-0.3-1.8-1.3-2.4
		c-3.5-1.8-6.9-3.6-10.3-5.5c-1.3-0.7-2.5-1.5-4.1-2.5c0.9-0.3,1.4-0.5,1.9-0.7c4.7-1.5,9.3-3,14-4.5c0.6-0.2,1.6-0.5,1.7-0.9
		c0.3-1.9,0.4-3.9,0.6-5.9c-0.6,0.4-0.9,0.8-1,1.3C263.4,145.3,262.6,145.8,260.7,145.4z"/>
	<path class="st0" d="M57.8,59c2.7,3.1,5.6,6.2,8.4,9.3c0.8,0.9,1.9,1.8,2.1,2.9c0.2,0.8-0.9,1.8-1.4,2.7c0,0,0,0.1,0.2,0.4
		c2.4-2.1,4.6-4.2,6.9-6.3c-0.8-0.2-1.3,0.2-1.9,0.3c-0.7,0.1-1.6,0.2-2-0.2c-1.9-1.9-3.6-3.9-5.3-5.8c1.1-1.9,2.4-2.2,4.3-1.5
		c2.7,1,5.4,1.9,8.1,2.8c0.5,0.2,1.2,0.4,1.5,0.2c1.4-1.1,2.8-2.4,4.1-3.6c-5.3,2.3-9.4-1.5-14.1-2.1c0.2-0.7,0.2-0.9,0.3-1.1
		c0.9-3.2,0.3-5.3-1.8-6.7c-2.1-1.4-4.3-1.2-6.8,0.8c-2.4,1.9-4.6,4.1-6.9,6.1c-0.4,0.3-0.6,0.8-1.2,1.7c0.8-0.3,1.2-0.3,1.4-0.5
		C55.3,56.8,56.5,57.5,57.8,59z M63.5,52.1c1.8,0.3,3.1,1.4,3.5,3.3c0.7,2.8-1.4,4.1-3,6c-2.2-2.3-4.1-4.4-6.2-6.7
		C59.4,53,61.1,51.7,63.5,52.1z"/>
	<path class="st0" d="M240.8,78.2c-3.7,1.9-7.3,4.1-10.9,6.1c-2.8,1.6-2.8,1.6-5.1-0.6c-0.1-0.1-0.2,0-0.7-0.1
		c1.7,2.9,3.2,5.6,4.7,8.1c0.3-1.4,0.1-3.1,0.9-3.7c2.1-1.6,4.5-2.7,6.7-4c1.7,1.6,1.5,3,0.4,4.7c-1.6,2.3-3,4.8-4.4,7.2
		c-0.3,0.4-0.6,1.1-0.5,1.4c0.8,1.6,1.8,3.2,2.7,4.8c-0.9-5.7,3.4-8.9,5.2-13.2c3.8,2.1,5.9,2,7.9,0.1c1.9-1.8,2.1-4.1,0.4-7.4
		c-1.3-2.6-2.9-5.1-4.4-7.6c-0.2-0.4-0.4-0.8-0.6-1.2c-0.2,0.1-0.4,0.3-0.5,0.4c0,0.2-0.1,0.5,0,0.7
		C243.8,76.1,242.7,77.2,240.8,78.2z M245.2,79c1.5,2.1,2.3,4.1,1.2,6.4c-0.9,1.7-2.4,2.6-4.3,2.4c-2.6-0.3-3.4-2.3-4.6-4.3
		C240.1,81.9,242.6,80.5,245.2,79z"/>
	<path class="st0" d="M182.6,47.3c0.8-2.5,2.1-4.8,3.3-7.2c2,0.4,2.9,1.3,3,3.2c0.1,2.5,0.3,4.9,0.5,7.4c0.1,1.4-0.3,2.9,1.6,3.5
		c1.3,0.4,2.6,1.1,3.8,1.7c-4.2-4-2.2-9.1-3.5-13.7c0.7-0.2,1-0.3,1.4-0.3c3.1-0.4,4.8-1.7,5.2-4c0.5-2.5-0.5-4.5-3.2-6
		c-2-1.1-4.1-2.1-6.2-3.1c-1.1-0.5-2.3-1-3.5-1.4c-0.1,0.6,0.1,1,0.3,1.1c2,1,1.7,2.3,0.9,4c-1.9,3.9-3.8,7.8-5.6,11.8
		c-0.9,2.2-2,3.5-4.5,2.2c0,0-0.1,0.2-0.3,0.4c2.8,1.3,5.6,2.6,8.4,3.9C183.5,49.5,182.3,48.2,182.6,47.3z M190.2,30.9
		c2.4,0.8,4.2,2,4.7,4.5c0.3,1.9-0.5,3.5-2.1,4.5c-2.3,1.4-4.1,0-6.3-0.8C187.7,36.2,188.9,33.6,190.2,30.9z"/>
	<path class="st0" d="M167.5,36c-0.3-1.9-2-3.6-3.2-5.4c1.8-0.7,3.8-2,3.2-5c-0.6-2.9-2.8-3.9-5.3-4.4c-2.1-0.4-4.2-0.7-6.3-0.9
		c-1.6-0.2-3.2-0.3-4.8-0.4c0,0.2,0,0.4-0.1,0.5c1.1,0.3,2.1,0.7,3.2,1c-0.4,2.5-0.7,4.8-1,7.2c-0.3,2.4-0.7,4.7-1,7.1
		c-0.6,4-0.6,4-4.1,5.5c3.8,0.5,7.7,1.3,11.5,1.6C164.5,43.3,168.2,40.1,167.5,36z M157.4,21.4c1.7,0.4,3.2,0.5,4.6,1
		c1.7,0.5,2.8,1.7,2.8,3.6c0,2.1-1.1,3.7-2.9,4.2c-1.5,0.4-3.2,0.2-4.8,0c-0.3,0-0.8-0.9-0.8-1.3C156.5,26.5,157,24.2,157.4,21.4z
		 M156.9,41.6c-1.5-0.3-2.4-1.3-2.1-3c0.3-2.2,0.6-4.3,1-6.4c0.1-0.4,0.8-1,1.2-0.9c1.5,0.2,3.1,0.4,4.6,1c2.4,0.9,3.4,2.9,3,5.4
		c-0.4,2.3-2.2,4.1-4.6,4.2C158.9,41.9,157.9,41.8,156.9,41.6z"/>
	<path class="st0" d="M76.5,221.9c-1.7-1.7-3.3-3.4-5-5.1c-0.2,0.2-0.4,0.3-0.5,0.5c0.4,0.6,1,1.2,1.3,1.9c0.2,0.5,0.3,1.4,0,1.7
		c-3.4,3.7-6.9,7.3-10.6,11.2c-0.1-0.8-0.2-1.2-0.2-1.5c0.4-6.8,0.9-13.6,1.3-20.5c0.2-2.6-1.3-4.8-4-5.7c0.1,0.4,0.2,0.8,0.4,1
		c1.6,1.7,1,3-0.5,4.4c-2.9,2.8-5.8,5.8-8.8,8.6c-2.4,2.4-2.4,2.4-5.4,1c-0.1,0-0.2,0.1-0.3,0.1c2,1.9,3.9,3.9,5.9,5.8
		c0.1,0,0.1-0.1,0.2-0.1c-0.7-1.1-1.4-2.2-2.2-3.5c3.8-3.7,7.6-7.3,11.6-11.2c-0.5,8.5-0.9,16.7-1.4,25c0.2,0.1,0.4,0.1,0.6,0.2
		c0.6-0.5,1.3-1,1.8-1.5c3.4-3.5,6.9-7,10.3-10.6C72.6,222.4,73.7,219.9,76.5,221.9z"/>
	<path class="st0" d="M196.5,251.4c-2.2-5.1-4.4-10.1-6.7-15.2c-0.5-1.2-0.5-2.1,0.7-2.7c0.3-0.2,0.7-0.3,1-0.4
		c-0.2-0.2-0.3-0.4-0.5-0.6c-2.2,0.9-4.4,1.9-6.7,2.8c0.1,0.2,0.2,0.4,0.2,0.6c0.4-0.1,0.8-0.1,1.1-0.2c1.7-0.7,2.7-0.2,3.4,1.6
		c1.5,3.8,3.3,7.5,4.9,11.3c0.2,0.5,0.3,1,0.6,1.9c-6.9-3.3-13.4-6.5-19.9-9.6c-2.1-1-4.8-0.4-6.4,1.7c0.4,0,0.8,0.2,1,0.1
		c2-0.8,3,0.2,3.7,1.9c1.6,3.9,3.2,7.8,4.8,11.7c1.3,3,1.2,3-1.2,5.1c-0.1,0.1-0.1,0.3-0.1,0.7c2.8-1.1,5.4-2.1,7.9-3.1
		c-0.4-0.5-0.7-0.7-0.9-0.6c-1.1,0.1-2.4,0.8-3.1,0.4c-0.8-0.5-1.1-2-1.6-3c-0.2-0.4-0.4-0.9-0.6-1.3c-1.4-3.4-2.9-6.7-4.5-10.6
		c8.1,3.7,15.4,7.7,23.4,10.6C197.2,253.2,196.9,252.3,196.5,251.4z"/>
	<path class="st0" d="M218,71.7c5.7,0.1,10.7-5,10.8-10.9c0.1-6.1-6-12.3-12.2-12.4c-6.3-0.1-11.2,4.7-11.3,11
		C205.3,65.8,211.3,71.6,218,71.7z M218,50c5.7-0.4,10.4,6,8.3,11.4c-1.5,3.7-4.1,6.4-7.7,8.1c-5,2.3-11.3-2-11.3-7.8
		C207.4,56.3,212.7,50.5,218,50z"/>
	<path class="st0" d="M44.9,98.2c6.5,0.1,12-5.7,12-12.5c0.1-6.3-4.7-11.2-10.8-11.2c-6.5-0.1-11.9,5.7-11.9,12.8
		C34.1,93.3,38.9,98.2,44.9,98.2z M43,76.9c4.2-0.4,10.6,3.3,12.3,7.2c2.3,5.3-2,11.5-8.4,11.6c-4-0.2-7.5-2-10-5.6
		C33.3,84.8,36.7,77.6,43,76.9z"/>
	<path class="st0" d="M85.1,229.4c-5.9,0-10.7,4.9-10.7,10.9c-0.3,7.4,7.2,12,12.6,11.9c6.1,0,11.1-4.8,11.1-10.8
		C98.2,234.9,92.3,229.4,85.1,229.4z M95.2,241.5c-0.8,2.4-2.2,4.7-3.8,6.7c-2.6,3.2-5.6,3.7-9.4,2.2c-3.4-1.4-5.4-4.3-5.2-8
		c0.3-4.9,2.6-8.7,7-11c0.9-0.5,2-0.6,3.1-1C92.9,230.7,97,235.9,95.2,241.5z"/>
	<path class="st0" d="M231.8,224.3c-4.3-3.9-8.5-7.9-12.7-11.9c2.4-2.3,3.9-6.1,8.5-3.1c0-0.2,0-0.5-0.1-0.7c-1.5-1.4-3-2.8-4.6-4.3
		c-0.2,1.2-0.1,2.3-0.6,2.9c-2.6,3-5.4,5.8-8.2,8.6c-1.1,1.1-2.6,1.9-4.2,3.1c0.9,1.3,2,3.1,3.1,4.9c0.2,0,0.5,0,0.7,0
		c-1.5-4.1,0-6.8,3.3-8.9c3.5,3.2,7,6.4,10.4,9.6c2.7,2.5,2.7,2.5,1.1,5.9c-0.1,0.2,0,0.4,0,1.1c2.7-2.9,5.1-5.5,7.4-8.1
		c-1,0.1-1.7,0.7-2.5,1C233.1,224.5,232.1,224.6,231.8,224.3z"/>
	<path class="st0" d="M239.7,113c-1.9,3.9-1.1,7.6,1.2,11c2,3,5.1,2.8,8.2,2.1c3.4-0.7,6.8-1.6,10.1-2.5c1.4-0.4,2.6-0.3,3.1,1.4
		c0.1,0.2,0.4,0.4,1,1c-0.6-2.7-1.1-4.8-1.6-6.9c-0.8,3-0.8,3.1-3.7,3.9c-3.1,0.8-6.2,1.6-9.3,2.4c-5,1.1-7.8-0.9-8.4-5.9
		c-0.5-3.7,0.7-5.6,4.3-6.5c3.4-0.9,6.8-1.7,10.1-2.4c3.4-0.8,3.4-0.8,5.1,2.1c0,0,0.1,0,0.6,0c-0.7-3-1.4-5.9-2.1-8.9
		c-0.2,0-0.3,0-0.5,0.1c-0.4,3.4-0.4,3.4-4.2,4.2c-3.1,0.7-6.3,1.4-9.4,2.1C242.3,110.4,240.6,111.1,239.7,113z"/>
	<path class="st0" d="M163.8,242.7c-2.2,0.2-4.4,0.4-6.6,0.6c1.1,0.9,2.7,1.5,2.9,2.3c0.8,4.6,1.4,9.2,1.7,13.8
		c0.2,2.4-1.3,4-3.5,4.7c-1.3,0.4-2.8,0.6-4.2,0.6c-3,0-4.5-1.4-4.9-4.4c-0.5-3.8-0.9-7.6-1.4-11.4c-0.4-3.2-0.4-3.2,2.6-4.2
		c0.1,0,0.1-0.2,0.1-0.7c-3.1,0.4-6.1,0.7-9,1.1c0.3,0.6,0.5,0.8,0.7,0.7c2.2-0.5,2.6,0.8,2.8,2.6c0.4,3.9,0.8,7.7,1.3,11.6
		c0.4,3.4,2.2,5.4,5.6,5.8c1.9,0.2,3.9,0.1,5.7-0.4c4-1,5.5-3.3,5.3-7.4c-0.2-3.3-0.6-6.5-1-9.8
		C161.5,246.1,160.3,243.6,163.8,242.7z"/>
	<path class="st0" d="M109.4,240.8c-3,1.9-3.4,5.5-0.8,8.5c1.7,1.9,3.6,3.6,5.2,5.5c1.1,1.2,1.5,2.8,0.6,4.4
		c-0.9,1.6-2.4,2.4-4.3,2.3c-2-0.1-3.6-1.1-4.4-2.9c-0.7-1.3-0.9-2.8-1.4-4.7c-0.6,1.6-1.1,2.9-1.5,4.3c-0.1,0.3,0.1,0.8,0.3,1.1
		c2.1,2.9,9,4,11.9,1.8c2.9-2.2,3.4-6.1,1-8.9c-1.8-2.1-4-3.9-5.8-6.1c-1.9-2.1-0.9-4.7,1.8-5.3c2.7-0.6,5.5,1.3,5.9,4
		c0.1,0.5,0.1,1.1,0.2,1.6c0.3,0,0.5,0,0.8-0.1c0-1.4,0.6-3.2-0.1-4.2C117.2,239.8,111.9,239.3,109.4,240.8z"/>
	<path class="st0" d="M43.8,169.2c0.2-0.1,0.3-0.2,0.5-0.3c-0.4-2.6-0.8-5.3-1.2-7.9c-0.2,0-0.3,0-0.5,0c0,1,0,2.1,0,3.5
		c-2.9-0.5-5.6-0.9-8.3-1.4c-0.4-0.1-0.8-0.5-0.9-0.9c-0.4-1.7-0.6-3.5-0.9-5.2c0-0.4,0.2-1,0.5-1.2c2.4-1.4,4.8-2.6,7.4-4
		c0.4,1.3,0.7,2.2,1,3.1c0.2,0,0.3-0.1,0.5-0.1c-0.4-2.8-0.8-5.6-1.2-8.9c-1.8,3.8-1.8,3.8-5.3,5.7c-4.6,2.5-9.2,5.1-13.8,7.7
		c-0.7,0.4-1.2,1.1-2.2,2c6.9,1.4,13,2.6,19.1,3.8C41.2,165.4,43.7,165.7,43.8,169.2z M24.3,161.2c0-0.2,0.1-0.4,0.1-0.6
		c2.3-1.3,4.7-2.7,7.3-4.2c0.3,2.2,0.6,4.2,1,6.5C29.7,162.3,27,161.7,24.3,161.2z"/>
	<path class="st0" d="M101.2,32.1c1.2,3.8,2.4,7.7,3.6,11.5c0.9,3.1,0.9,3.1-1.7,4.6c-0.3,0.2-0.6,0.2-0.9,0.2
		c0.2,0.2,0.3,0.4,0.5,0.6c4.1-1.3,8.2-2.7,12.4-4c5.2-1.5,5.2-1.5,4.5-6.8c0-0.1-0.1-0.2-0.6-1c-0.2,7.2-5.5,7.4-10.2,8.8
		c-1.8-5.5-3.4-10.8-5.2-16.1c-0.6-1.9-0.6-3.2,1.7-3.6c0.4-0.1,0.8-0.4,1.2-0.7c-0.1-0.1-0.1-0.3-0.2-0.4c-3.2,1-6.4,2-9.5,3
		C100.1,28.7,100.1,28.7,101.2,32.1z"/>
	<path class="st0" d="M211,238.2c-2.1-3.1-4.3-6.1-6.5-9.2c-1.9-2.7-1.9-2.7,0.2-5.3c0.1-0.1,0.1-0.4,0.1-0.8c-3,2.1-5.8,4-8.6,6
		c0.1,0.1,0.2,0.3,0.3,0.4c0.4-0.1,0.8-0.2,1.1-0.4c1.7-1.4,2.8-0.8,3.9,0.8c2.5,3.7,5.1,7.3,7.6,10.9c2.2,3.2,1.9,3.1-0.5,5.1
		c-0.2,0.1-0.2,0.4-0.3,0.6c0.1,0.1,0.2,0.2,0.3,0.3c2.8-1.9,5.5-3.9,8.3-5.8c-0.1-0.1-0.2-0.3-0.3-0.4
		C213.2,241.5,213.3,241.5,211,238.2z"/>
	<path class="st0" d="M128.3,21.3c2.2-0.3,2.8,0.7,2.9,2.8c0.2,4.4,0.8,8.7,1,13.1c0.2,4.2,0.4,3.7-3.1,4.4c-0.2,0-0.3,0.3-0.9,0.8
		c3.9-0.3,7.2-0.6,10.5-0.9c-0.2-0.5-0.4-0.7-0.6-0.7c-2.4,0.3-3-1.1-3.1-3.2c-0.2-4.1-0.6-8.2-1-12.3c-0.3-3.7-0.3-3.7,3-4.8
		c0,0,0-0.2,0.1-0.4c-3.3,0.3-6.7,0.5-10,0.8c0,0.1,0,0.3,0,0.4C127.6,21.2,128,21.3,128.3,21.3z"/>
	<path class="st0" d="M40.4,184.1c-2.5,0-4.3,2-4.2,4.5c0.1,2.3,2,4.3,4.4,4.2c2.3,0,4.3-2,4.3-4.3
		C44.8,186.1,42.8,184.1,40.4,184.1z"/>
	<path class="st0" d="M243.7,184.2c-2.4,0-4.3,2-4.3,4.3c0,2.3,2.2,4.4,4.5,4.4c2.4-0.1,4.3-2.1,4.2-4.6
		C248,185.8,246.2,184.1,243.7,184.2z"/>
	<path class="st0" d="M86,191.2c5.3,4.9,10.5,10,15.8,14.9c3.6,3.3,7.1,6.8,11.1,9.3c8.7,5.5,18,4.6,25.5-1.7
		c1.3-1.1,1.7-2.3,1.7-3.9c0-15.9-0.1-31.7,0-47.6c0-26.6,0.1-53.2,0.2-79.8c0-1.4,0.1-2.7,0.1-4.1c0-1.2-0.6-2.3-1.9-2.1
		c-0.7,0.1-1.5,1.3-1.6,2.1c-0.2,2.2-0.1,4.4-0.1,6.6c0,4.5,0,9,0,13.5c-0.8-3.3-1.3-6.6-1.7-9.9c-0.4-3.5-0.8-7.1-1.4-10.6
		c-0.1-0.6-0.8-1.1-1.2-1.6c-0.3,0.6-0.6,1.2-0.8,1.8c-0.1,0.4,0,0.8,0.1,1.2c0.9,6.9,1.8,13.8,2.6,20.7c0.1,0.5,0,1.1,0,1.6
		c-0.2,0-0.4,0-0.5,0.1c-0.3-0.8-0.6-1.6-0.9-2.5c-1.3-4.6-2.6-9.2-3.8-13.8c-0.7-2.4-1.3-4.9-2.1-7.3c-0.1-0.4-0.8-0.6-1.3-1
		c-0.2,0.5-0.5,0.9-0.6,1.4c0,0.4,0.2,0.9,0.3,1.4c1.9,6.9,3.9,13.8,5.8,20.7c0.2,0.6,0.2,1.2,0.3,1.8c-0.2,0.1-0.4,0.1-0.6,0.2
		c-0.4-0.7-0.8-1.5-1.2-2.3c-3.4-7.1-6.8-14.2-10.3-21.2c-0.3-0.6-1.1-0.9-1.7-1.4c0,0.8-0.4,1.7-0.1,2.3c2.2,4.7,4.5,9.4,6.7,14
		c1.4,2.9,2.8,5.8,4.2,8.7c-0.2,0.1-0.4,0.2-0.5,0.3c-0.5-0.7-1-1.3-1.4-2c-4.8-7.2-9.5-14.5-14.4-21.7c-0.3-0.5-1.3-0.6-1.9-1
		c0.1,0.7-0.1,1.5,0.2,2c1.7,2.7,3.4,5.3,5.2,7.9c3.2,4.9,6.5,9.8,9.7,14.7c-0.2,0.2-0.4,0.5-0.6,0.7c-0.8-0.6-1.7-1-2.3-1.7
		c-5.7-7-11.3-14-17-21c-0.5-0.6-1.7-1.2-2-1c-1.2,0.9,0,1.6,0.5,2.3c4.3,5.4,8.7,10.8,13,16.1c1.2,1.4,2.3,2.9,3.4,4.3
		c-0.2,0.2-0.4,0.3-0.5,0.5c-1.1-1-2.2-2-3.3-3.1c-6.2-6.3-12.4-12.5-18.7-18.8c-0.4-0.4-1.3-0.4-2-0.6c0.2,0.7,0.2,1.6,0.7,2
		c3.3,3.4,6.7,6.8,10.1,10.2c2.6,2.6,5.1,5.2,7.6,7.8c-0.1,0.1-0.2,0.3-0.3,0.4c-1.2-0.8-2.5-1.6-3.7-2.4
		c-7.7-5.5-15.3-11-23.1-16.4C86.8,82,85.6,81.6,85,82c-0.6,0.3-0.7,1.6-1,2.4c-0.1,0.2,0,0.4,0,0.6c0,33.8,0,67.6,0,101.4
		C83.9,188.4,84.5,189.8,86,191.2z M136.4,209.1c0,0.9-0.6,2-1.2,2.5c-6.6,5.3-13.7,4.7-20.8,0.6c-0.4-0.3-0.9-0.9-0.9-1.4
		c-0.1-7.7,0-15.4,0-23.4c9.3,4,14.7,4,23,0.3c0,1.6,0,3.1,0,4.5C136.5,197.9,136.5,203.5,136.4,209.1z M113.5,104.8
		c7.7,3.1,15.3,2.6,23-0.1c0,2.8,0,5.4,0,8c0,4.4,0,8.9,0,13.3c0,1.3-0.5,2-1.5,2.6c-6.6,4.3-14.4,3.3-20.7-0.6
		c-0.4-0.2-0.8-0.8-0.8-1.2C113.5,119.6,113.5,112.4,113.5,104.8z M113.5,132.7c0-0.2,0.1-0.4,0.2-0.8c7.5,3.7,15,4.4,22.8,0.1
		c0,3.1,0,5.8,0,8.5c0,4.8,0,9.6,0,14.3c0,1.2-0.4,2-1.5,2.6c-6.7,4.3-14.1,3.4-20.7-0.5c-0.5-0.3-0.9-1.1-0.9-1.6
		C113.4,147.8,113.5,140.3,113.5,132.7z M113.5,160.6c7.8,3.8,15.3,4.5,23,0.2c0,3.6,0,6.8,0,10.1c0,3.6,0,7.1,0,10.7
		c0,1.2-0.4,2-1.4,2.7c-6.2,3.9-14.7,3.7-20.7-0.5c-0.5-0.3-0.9-1.1-0.9-1.6C113.4,175,113.5,168,113.5,160.6z M109.9,208.1
		c0,0.1-0.2,0.2-0.4,0.4c-3.5-3.3-7-6.7-10.6-10c-3.4-3.2-6.8-6.3-10.1-9.6c-0.7-0.7-1.3-2-1.3-3c-0.1-4.5-0.1-9.1-0.1-14.1
		c1.9,1.8,3.4,3.2,4.9,4.7c0.4,0.4,0.4,1.2,0.6,1.9c0.7,3,1,6.1,2.1,8.9c2.2,5.3,5.4,5.8,9.5,1.5c1.5,1.1,3,2.2,4.5,3.4
		c0.4,0.3,0.7,0.9,0.7,1.3C109.9,198.4,109.9,203.2,109.9,208.1z M87.5,98.2c0.3-3.6,0.1-7.2,0.1-11.1c0.6,0.3,1,0.4,1.3,0.7
		c6.6,4.7,13.2,9.4,19.8,14.2c0.6,0.4,1.2,1.2,1.2,1.9c0.1,4.3,0,8.6,0,12.9c0,0.2-0.2,0.4-0.3,0.6c-2.5-1.5-4.8-2.8-5-6.3
		c-0.1-1.9-0.9-3.9-1.9-5.6c-2.3-4.3-6.5-4.9-10-1.5c-0.4,0.4-0.8,0.9-1.2,1.3C88.1,104.1,87.2,101.6,87.5,98.2z M87.5,160.5
		c0-17.2,0-34.5,0-51.7c0-1,0-2,0-3.5c1.8,1.3,3.2,2.3,4.5,3.3c1.1-1.3,2.1-2.7,3.3-3.7c2-1.5,4.1-1.2,5.2,1.1
		c1.2,2.5,1.7,5.3,2.6,7.9c0.4,1,0.8,2.3,1.6,2.8c4.4,2.3,5.4,5.7,5.3,10.5c-0.3,20-0.1,40.1-0.1,60.1c0,0.8,0,1.6,0,2.9
		c-2.2-1.6-4-2.9-5.9-4.3c-0.6,0.9-1.1,1.7-1.8,2.5c-1.6,1.9-3,1.9-4.4-0.2c-2.1-3-2.7-6.6-2.8-10.1c-0.1-1.4-0.5-2.4-1.5-3.4
		c-2-1.9-4.7-3.5-5.7-5.8C86.9,166.4,87.5,163.3,87.5,160.5z"/>
	<path class="st0" d="M143.1,79.6c0.1,8.1,0.3,16.1,0.3,24.2c0,34.9,0.1,69.8-0.1,104.6c0,3.2,1.1,5,3.5,6.7
		c9.2,6.7,20.7,3.9,28.2-2.9c7.7-7,15.1-14.3,22.7-21.4c1.1-1,1.7-2.1,1.7-3.7c0-34.2,0-68.4-0.1-102.6c0-0.9-0.4-2.1-1.1-2.6
		c-0.5-0.3-1.8,0.2-2.5,0.7c-8,5.7-16,11.4-24.1,17.1c-0.9,0.6-1.8,1.1-2.7,1.6c0-0.6,0.2-0.9,0.5-1.2c4.5-4.6,9.1-9.1,13.6-13.7
		c1.3-1.3,2.5-2.5,3.7-3.8c0.3-0.4,0.3-1.2,0.4-1.8c-0.6,0.1-1.2,0.1-1.8,0.3c-0.3,0.1-0.5,0.5-0.7,0.7c-6.6,6.7-13.3,13.4-20,20.1
		c-0.5,0.5-1.1,0.8-1.7,1.2c-0.1-0.1-0.2-0.3-0.3-0.4c0.3-0.4,0.6-0.9,1-1.3c5-6.2,10-12.3,14.9-18.5c0.6-0.8,2.3-1.8,1-2.8
		c-1.3-1.1-1.9,0.8-2.6,1.6c-5.6,6.8-11.1,13.7-16.7,20.5c-0.5,0.7-1.5,1-2.3,1.5c-0.1-0.2-0.3-0.4-0.4-0.6c0.3-0.5,0.5-0.9,0.8-1.4
		c4.6-7,9.2-13.9,13.8-20.9c0.4-0.6,0.3-1.5,0.4-2.3c-0.7,0.4-1.6,0.6-2,1.2c-4.9,7.3-9.7,14.6-14.5,21.9c-0.4,0.6-0.8,1.1-1.2,1.6
		c-0.1-0.1-0.3-0.2-0.4-0.3c0.1-0.3,0.2-0.6,0.4-0.9c2.2-4.6,4.4-9.1,6.6-13.7c1.4-2.8,2.8-5.6,4-8.5c0.2-0.5,0-1.3-0.1-2
		c-0.6,0.4-1.2,0.7-1.8,1.1c-0.3,0.2-0.4,0.7-0.5,1.1c-3.4,7-6.7,13.9-10.1,20.9c-0.3,0.6-0.6,1.1-0.9,1.7c-0.2-0.1-0.3-0.1-0.5-0.2
		c0.1-0.6,0.2-1.2,0.4-1.8c1.3-4.7,2.6-9.5,4-14.2c0.7-2.5,1.5-5,2.1-7.5c0.1-0.5-0.4-1.1-0.6-1.7c-0.4,0.4-1,0.7-1.3,1.2
		c-0.2,0.3-0.3,0.8-0.4,1.2c-1.9,6.8-3.8,13.5-5.7,20.3c-0.2,0.6-0.5,1.2-0.7,1.9c-0.2-0.1-0.4-0.1-0.6-0.2c0.1-0.8,0.1-1.6,0.2-2.3
		c0.9-7,1.8-14,2.6-21c0.1-0.6-0.5-1.3-0.8-1.9c-0.4,0.6-1.1,1.2-1.2,1.8c-0.9,6.8-1.8,13.5-2.6,20.3c-0.1,0-0.2,0-0.3,0.1
		c0-2.7,0-5.3,0-8c0-4-0.1-8.1-0.1-12.1c0-1.2-0.4-2.3-1.8-2.3c-1.4,0-1.8,1-1.7,2.3C143.1,78.8,143.1,79.2,143.1,79.6z
		 M191.1,192.4c-5.7,4.8-10.9,10.1-16.3,15.3c-0.3,0.3-0.7,0.6-1.4,1.1c0-3.4,0-6.3,0-9.3c0-0.5,0-1.1,0-1.6c0-5.7,0.2-6.1,5.4-8.9
		c4.1,4.1,7.4,3.6,9.6-1.9c1-2.4,1.4-5,1.8-7.5c0.2-1.8,0.7-3.2,2.1-4.4c1.1-0.9,2.1-1.9,3.5-3.3c0,3.3-0.3,6.2,0.1,9
		C196.6,185.7,194.9,189.1,191.1,192.4z M173.4,104.3c0-0.7,0.4-1.7,0.9-2c6.8-4.9,13.7-9.8,20.5-14.7c0.2-0.1,0.5-0.2,1-0.5
		c0,5,0.1,9.6-0.1,14.2c0,0.9-1,1.7-1.7,2.5c-0.6,0.6-1.4,1.1-2.1,1.6c-1-0.9-1.9-1.8-2.9-2.4c-3-2-6.1-1.4-8,1.6
		c-1.1,1.8-2.2,4-2.3,6c-0.3,3.5-2.3,5.3-5.4,7c0-1.2,0-2.1,0-3.1C173.4,111.1,173.3,107.7,173.4,104.3z M175.1,119.2
		c3.4-1.9,5.8-4.5,5.9-8.8c0-1.3,0.8-2.6,1.4-3.8c1.6-3.1,4.1-3.5,6.6-1.1c0.9,0.8,1.4,1.9,2.3,3.1c1.4-1,2.8-2.1,4.5-3.3
		c0.1,0.8,0.2,1.3,0.2,1.8c0,20,0,40.1-0.1,60.1c0,1-0.6,2.3-1.3,2.9c-3.9,3.2-6.9,6.7-6.8,12.2c0,1.8-1.1,3.8-2,5.5
		c-1.3,2.4-2.9,2.4-4.6,0.3c-0.6-0.7-1-1.4-1.7-2.4c-1.9,1.4-3.7,2.7-5.8,4.3c-0.1-0.9-0.2-1.5-0.2-2c0-21.8,0-43.6,0-65.4
		C173.3,121,173.7,119.9,175.1,119.2z M168.3,212.7c-7.3,4-14.6,3.6-20.3-1.2c-0.6-0.5-1.1-1.3-1.1-2c-0.1-7-0.1-13.9-0.1-20.9
		c0-0.2,0.1-0.5,0.3-0.9c7.5,4.1,15,3.5,22.7-0.3c0,0.9,0.1,1.5,0.1,2.2c0,6.8,0,13.7,0,20.5C169.9,211.3,169.5,212.1,168.3,212.7z
		 M146.8,161.7c0-0.2,0.1-0.4,0.2-0.8c7.6,4.2,15.1,3.6,22.7-0.2c0.1,0.8,0.2,1.4,0.2,2c0,6.3,0,12.6,0,18.9c0,0.7-0.3,1.8-0.8,2.1
		c-6.1,3.8-14.1,5.1-21,0.3c-0.6-0.4-1.1-1.2-1.2-1.9C146.8,175.2,146.8,168.5,146.8,161.7z M146.8,104.7c7.8,2.7,15.2,3.3,22.9,0.1
		c0.1,0.9,0.1,1.5,0.1,2.2c0,6.2,0,12.4,0,18.7c0,1.4-0.4,2.2-1.6,2.9c-6.8,3.5-13.5,4.2-20.2-0.1c-0.6-0.4-1.2-1.1-1.2-1.6
		C146.8,119.6,146.8,112.3,146.8,104.7z M146.8,133.8c0-0.5,0.1-1,0.1-1.9c7.6,4.3,15.1,3.6,22.8-0.2c0.1,1,0.1,1.7,0.1,2.4
		c0,6.8,0,13.5,0,20.3c0,1.5-0.5,2.3-1.8,3c-6.6,3.4-13.1,4-19.7,0c-1.2-0.7-1.7-1.6-1.6-3C146.9,147.7,146.8,140.7,146.8,133.8z"/>
	<path class="st0" d="M127.2,141c-1,0-2,0-3,0c0,4.5,0,8.9,0,13.3c1.1,0,2.1,0,3,0C127.2,149.8,127.2,145.5,127.2,141z"/>
	<path class="st0" d="M125.4,124.6c0-3.6,0-7.4,0-11.3c-1.1,0-2,0-2.9,0c0,4.5,0,8.8,0,13.3c2.5,0,4.9,0,7.6,0
		C129.2,123.7,126.7,126.1,125.4,124.6z"/>
	<path class="st0" d="M125.6,194.1c-0.3,0-0.9,0.5-1.1,0.9c-1.7,4.1-3.4,8.2-5.1,12.4c2.3,0.8,2.2-1.1,2.5-2.1
		c0.4-1.7,1.5-1.8,2.9-1.8c1.3,0.1,2.5-0.1,3,1.7c0.8,2.8,0.9,2.8,4,2.1c-1.6-4.1-3.2-8.2-4.9-12.3
		C126.7,194.6,126.1,194.2,125.6,194.1z M123.2,202.3c0.5-1.3,1-2.6,1.4-3.8c0.2,0,0.3,0,0.5,0c0.4,1.2,0.9,2.4,1.4,3.8
		C125.4,202.3,124.5,202.3,123.2,202.3z"/>
	<path class="st0" d="M125.3,180.1c0-3.5,0-7.4,0-11.3c-1.1,0-1.9,0-2.8,0c0,4.5,0,8.9,0,13.3c2.5,0,4.8,0,7.6,0
		C129.2,179.4,126.8,181.7,125.3,180.1z"/>
	<path class="st0" d="M160.6,154.5c1.6,0.1,1.5-0.6,1.2-1.7c-1.4,0-2.8,0-4.3,0c0-4.1,0-8,0-11.9c-1.1,0-2,0-3,0c0,4.5,0,8.8,0,13.5
		C156.7,154.5,158.7,154.4,160.6,154.5z"/>
	<path class="st0" d="M159.3,113.3c-1,0-2,0-3,0c0,4.5,0,8.9,0,13.4c1,0,1.9,0,3,0C159.3,122.1,159.3,117.7,159.3,113.3z"/>
	<path class="st0" d="M154,180.5c0.3-1.7,1.2-2.3,2.9-2.3c1.8,0,2.8,0.4,3.1,2.3c0.1,0.6,0.4,1.1,0.6,1.7c1.1,0,2.1,0,3.3,0
		c-1.7-4.4-3.3-8.5-5-12.6c-0.2-0.4-0.7-0.9-1.1-0.9c-0.4,0-1,0.4-1.2,0.8c-1.7,4.1-3.4,8.3-5.1,12.5
		C153.4,182.8,153.8,181.7,154,180.5z M157.1,172.5c0.6,1.7,1.1,2.9,1.7,4.5c-0.6,0.1-0.9,0.2-1.2,0.2c-0.6,0-1.2,0-2.2,0
		C155.9,175.5,156.4,174.2,157.1,172.5z"/>
	<path class="st0" d="M160.2,200.4c0.4-0.3,0.5-0.4,0.8-0.6c1.3-0.9,2-2.1,1.5-3.7c-0.5-1.6-1.7-2-3.2-2.1c-1.9,0-3.8,0-5.7,0
		c0,4.6,0,9,0,13.6c1.6,0,3.1,0,4.6,0c2.5,0,4.1-1,4.6-2.7C163.2,202.8,162.4,201.3,160.2,200.4z M156.6,195.4
		c1.4-0.2,2.6-0.1,2.9,1.6c0.3,1.8-0.5,2.7-2.9,2.9C156.6,198.4,156.6,196.9,156.6,195.4z M156.6,206.4c0-1.8,0-3.4,0-5
		c2.1-0.3,3.1,0.4,3.1,2.4C159.8,205.5,158.8,206.4,156.6,206.4z"/>
</g>
</svg>
