<?xml version="1.0" encoding="utf-8"?>
<!-- Generator: Adobe Illustrator 15.0.0, SVG Export Plug-In  -->
<!DOCTYPE svg PUBLIC "-//W3C//DTD SVG 1.1//EN" "http://www.w3.org/Graphics/SVG/1.1/DTD/svg11.dtd" [
	<!ENTITY ns_flows "http://ns.adobe.com/Flows/1.0/">
]>
<svg version="1.1"
	 xmlns="http://www.w3.org/2000/svg" xmlns:xlink="http://www.w3.org/1999/xlink" xmlns:a="http://ns.adobe.com/AdobeSVGViewerExtensions/3.0/"
	 x="0px" y="0px" width="524px" height="142px" viewBox="-17.007 -14.698 524 142"
	 overflow="visible" enable-background="new -17.007 -14.698 524 142" xml:space="preserve">
<defs>
</defs>
<g>
	<defs>
		<rect id="SVGID_1_" x="0" width="490.643" height="112.309"/>
	</defs>
	<clipPath id="SVGID_2_">
		<use xlink:href="#SVGID_1_"  overflow="visible"/>
	</clipPath>
	<path clip-path="url(#SVGID_2_)" fill="#010202" d="M448.603,94.096c0,14.115,11.08,18.213,20.945,18.213
		c10.016,0,21.096-4.098,21.096-18.213V18.212C490.644,4.098,479.563,0,469.548,0c-9.865,0-20.945,4.098-20.945,18.212V94.096z
		 M464.69,19.578c0-5.463,1.67-6.679,5.008-6.679c3.188,0,4.857,1.216,4.857,6.679v73.151c0,5.465-1.67,6.68-4.857,6.68
		c-3.338,0-5.008-1.215-5.008-6.68V19.578z M444.05,110.184V96.069h-20.488V2.125h-16.088v108.059H444.05z M375.179,69.206h-16.088
		v24.891c0,14.115,11.078,18.213,20.943,18.213c10.018,0,21.098-4.098,21.098-18.213V74.973c0-10.928-25.953-34.299-25.953-42.04
		V19.578c0-5.463,1.668-6.679,5.008-6.679c3.188,0,4.857,1.216,4.857,6.679v21.399h16.088V18.212C401.132,4.098,390.052,0,380.034,0
		c-9.865,0-20.943,4.098-20.943,18.212v15.48c0,17.605,25.953,32.478,25.953,47.656v11.381c0,5.465-1.67,6.68-4.857,6.68
		c-3.34,0-5.008-1.215-5.008-6.68V69.206z M310.903,94.096c0,14.115,11.08,18.213,20.945,18.213
		c10.016,0,21.096-4.098,21.096-18.213V18.212C352.944,4.098,341.864,0,331.849,0c-9.865,0-20.945,4.098-20.945,18.212V94.096z
		 M326.991,19.578c0-5.463,1.67-6.679,5.01-6.679c3.188,0,4.855,1.216,4.855,6.679v73.151c0,5.465-1.668,6.68-4.855,6.68
		c-3.34,0-5.01-1.215-5.01-6.68V19.578z M283.589,2.125h-16.088v108.059h16.088V2.125z M200.12,2.125v14.114h14.115v93.945h16.087
		V16.239h13.963V2.125H200.12z M169.873,69.206h-16.087v24.891c0,14.115,11.079,18.213,20.944,18.213
		c10.017,0,21.096-4.098,21.096-18.213V74.973c0-10.928-25.953-34.299-25.953-42.04V19.578c0-5.463,1.67-6.679,5.009-6.679
		c3.187,0,4.856,1.216,4.856,6.679v21.399h16.088V18.212C195.826,4.098,184.747,0,174.73,0c-9.865,0-20.944,4.098-20.944,18.212
		v15.48c0,17.605,25.952,32.478,25.952,47.656v11.381c0,5.465-1.669,6.68-4.856,6.68c-3.339,0-5.009-1.215-5.009-6.68V69.206z
		 M97.814,2.125v108.059h13.204V31.872c-0.152-4.554-0.455-9.258-0.455-13.963h0.607c1.366,12.748,2.276,24.89,4.856,38.245
		l7.589,54.03h23.828V2.125h-13.204v54.939c0,10.473,0.607,21.096,0.455,31.569v5.766h-0.607
		c-1.366-20.336-3.946-41.128-7.588-61.162l-4.554-31.112H97.814z M75.262,2.125v90.604c0,5.465-1.669,6.68-4.857,6.68
		c-3.339,0-5.008-1.215-5.008-6.68V2.125H49.309v91.971c0,14.115,11.08,18.213,20.945,18.213c10.016,0,21.096-4.098,21.096-18.213
		V2.125H75.262z M16.088,110.184V55.396h0.455l11.687,54.789h16.543L32.176,51.45L44.469,2.125H28.837L16.543,50.843h-0.455V2.125H0
		v108.059H16.088z"/>
</g>
</svg>
