<?xml version="1.0" encoding="utf-8"?>
<!-- Generator: Adobe Illustrator 16.0.4, SVG Export Plug-In . SVG Version: 6.00 Build 0)  -->
<!DOCTYPE svg PUBLIC "-//W3C//DTD SVG 1.1//EN" "http://www.w3.org/Graphics/SVG/1.1/DTD/svg11.dtd">
<svg version="1.1" id="Layer_1" xmlns="http://www.w3.org/2000/svg" xmlns:xlink="http://www.w3.org/1999/xlink" x="0px" y="0px"
	 width="1212.2px" height="638.2px" viewBox="0 0 1212.2 638.2" style="enable-background:new 0 0 1212.2 638.2;"
	 xml:space="preserve">
<style type="text/css">
<![CDATA[
	.st0{fill:url(#SVGID_3_);stroke:url(#SVGID_4_);stroke-width:3;stroke-miterlimit:10;}
	.st1{fill:url(#SVGID_9_);stroke:url(#SVGID_10_);stroke-width:3;stroke-miterlimit:10;}
	.st2{fill:url(#SVGID_1_);stroke:url(#SVGID_2_);stroke-width:3;stroke-miterlimit:10;}
	.st3{fill:url(#SVGID_29_);stroke:url(#SVGID_30_);stroke-width:3;stroke-miterlimit:10;}
	.st4{fill:url(#SVGID_27_);stroke:url(#SVGID_28_);stroke-width:3;stroke-miterlimit:10;}
	.st5{fill:url(#SVGID_19_);stroke:url(#SVGID_20_);stroke-width:3;stroke-miterlimit:10;}
	.st6{fill:url(#SVGID_17_);stroke:url(#SVGID_18_);stroke-width:3;stroke-miterlimit:10;}
	.st7{fill:none;}
	.st8{fill:url(#SVGID_25_);stroke:url(#SVGID_26_);stroke-width:3;stroke-miterlimit:10;}
	.st9{fill:url(#SVGID_15_);stroke:url(#SVGID_16_);stroke-width:3;stroke-miterlimit:10;}
	.st10{fill:url(#SVGID_7_);stroke:url(#SVGID_8_);stroke-width:3;stroke-miterlimit:10;}
	.st11{fill:url(#SVGID_23_);stroke:url(#SVGID_24_);stroke-width:3;stroke-miterlimit:10;}
	.st12{fill:url(#SVGID_31_);stroke:url(#SVGID_32_);stroke-width:3;stroke-miterlimit:10;}
	.st13{fill:url(#SVGID_13_);stroke:url(#SVGID_14_);stroke-width:3;stroke-miterlimit:10;}
	.st14{fill:url(#SVGID_21_);stroke:url(#SVGID_22_);stroke-width:3;stroke-miterlimit:10;}
	.st15{fill:url(#SVGID_5_);stroke:url(#SVGID_6_);stroke-width:3;stroke-miterlimit:10;}
	.st16{fill:url(#SVGID_11_);stroke:url(#SVGID_12_);stroke-width:3;stroke-miterlimit:10;}
]]>
</style>
<pattern  x="308.6" y="739.6" width="14.2" height="14.2" patternUnits="userSpaceOnUse" id="New_Pattern_Swatch_1" viewBox="0 -14.2 14.2 14.2" style="overflow:visible;">
	<g>
		<polygon class="st7" points="0,0 14.2,0 14.2,-14.2 0,-14.2 		"/>
		<g>
			<polygon class="st7" points="0,-14.2 14.2,-14.2 14.2,0 0,0 			"/>
			<polygon points="14.2,-14.2 0,-14.2 0,0 14.2,0 			"/>
		</g>
	</g>
</pattern>
<g>
	<g>
		<pattern  id="SVGID_1_" xlink:href="#New_Pattern_Swatch_1" patternTransform="matrix(1 0 0 -1 298.0283 -16543.2266)">
		</pattern>
		<pattern  id="SVGID_2_" xlink:href="#New_Pattern_Swatch_1" patternTransform="matrix(1 0 0 -1 298.0283 -16543.2266)">
		</pattern>
		<path vector-effect="non-scaling-stroke" class="st2" d="M925,57.1c-5.7,0-8.5-2.8-11.8-6.1c-3.6-3.6-8.1-8.1-16.5-8.1H0v-0.4h896.7c8.5,0,12.9-4.5,16.5-8.1
			c3.3-3.3,6.1-6.1,11.8-6.1h28.3c5.7,0,8.5,2.8,11.8,6.1c3.6,3.6,8.1,8.1,16.5,8.1h230.5v0.4H981.7c-8.5,0-12.9,4.5-16.5,8.1
			c-3.3,3.3-6.1,6.1-11.8,6.1L925,57.1L925,57.1z"/>
	</g>
	<g>
		<pattern  id="SVGID_3_" xlink:href="#New_Pattern_Swatch_1" patternTransform="matrix(1 0 0 -1 298.0283 -16543.2266)">
		</pattern>
		<pattern  id="SVGID_4_" xlink:href="#New_Pattern_Swatch_1" patternTransform="matrix(1 0 0 -1 298.0283 -16543.2266)">
		</pattern>
		<path class="st0" d="M528.1,227.2c-5.7,0-8.5-2.8-11.8-6.1c-3.1-3.1-6.8-6.8-13.1-7.8V213l-63.5,0v0.3c-6.3,1-10.1,4.7-13.1,7.8
			c-3.3,3.3-6.1,6.1-11.8,6.1h-28.3c-5.7,0-8.5-2.8-11.8-6.1c-3.1-3.1-6.8-6.8-13.1-7.8V213l-10.5,0c-8.5,0-13,4.5-16.5,8.1
			c-3.3,3.3-6.1,6.1-11.8,6.1h-28.3c-5.7,0-8.5-2.8-11.8-6.1c-3.6-3.6-8.1-8.1-16.5-8.1l-35.4,0c-8.5,0-12.9,4.5-16.5,8.1
			c-3.3,3.3-6.1,6.1-11.8,6.1h-28.3c-5.7,0-8.5-2.8-11.8-6.1c-3.6-3.6-8.1-8.1-16.5-8.1l-35.4,0c-8.5,0-12.9,4.5-16.5,8.1
			c-3.3,3.3-6.1,6.1-11.8,6.1H53.3c-5.7,0-8.5-2.8-11.8-6.1c-3.6-3.6-8.1-8.1-16.5-8.1H0v-0.4h25.1c8.4,0,12.9-4.5,16.5-8.1
			c3.3-3.3,6.1-6.1,11.8-6.1h28.3c5.7,0,8.5,2.8,11.8,6.1c3.6,3.6,8,8,16.5,8.1h35.6c8.4,0,12.9-4.5,16.5-8.1
			c3.3-3.3,6.1-6.1,11.8-6.1h28.3c5.7,0,8.5,2.8,11.8,6.1c3.6,3.6,8,8,16.5,8.1H266c8.4,0,12.9-4.5,16.5-8.1
			c3.3-3.3,6.1-6.1,11.8-6.1h28.3c5.7,0,8.5,2.8,11.8,6.1c3.6,3.6,8,8,16.5,8.1h7.3c8.4,0,12.9-4.5,16.5-8.1
			c3.3-3.3,6.1-6.1,11.8-6.1h28.3c5.7,0,8.5,2.8,11.8,6.1c3.6,3.6,8,8,16.5,8.1h56.9c8.4,0,12.9-4.5,16.5-8.1
			c3.3-3.3,6.1-6.1,11.8-6.1h28.3c5.7,0,8.5,2.8,11.8,6.1c3.1,3.1,6.8,6.8,13.1,7.8l0,0.9c-6.3,1-10.1,4.7-13.1,7.8
			c-3.3,3.3-6.1,6.1-11.8,6.1H528.1z M1123.4,227.2c-5.7,0-8.5-2.8-11.8-6.1c-3.6-3.6-8.1-8.1-16.5-8.1l-35.4,0
			c-9.1,0-13.9,4.4-17.8,8c-3.7,3.3-6.8,6.2-13.3,6.2h-15.6c-6.5,0-9.7-2.9-13.3-6.2c-3.9-3.5-8.8-8-17.8-8
			c-8.5,0-12.9,4.5-16.5,8.1c-3.3,3.3-6.1,6.1-11.8,6.1H925c-5.7,0-8.5-2.8-11.8-6.1c-3.6-3.6-8.1-8.1-16.5-8.1l-70.9,0
			c-8.5,0-12.9,4.5-16.5,8.1c-3.3,3.3-6.1,6.1-11.8,6.1h-28.3c-5.7,0-8.5-2.8-11.8-6.1c-3.6-3.6-8.1-8.1-16.5-8.1l-70.9,0
			c-8.5,0-13,4.5-16.5,8.1c-3.3,3.3-6.1,6.1-11.8,6.1h-28.3c-5.7,0-8.5-2.8-11.8-6.1c-3.5-3.5-7.9-7.9-16-8.1l-1.2-0.4
			c0.2,0,0.7,0,0.7,0c8.4,0,12.9-4.5,16.5-8.1c3.3-3.3,6.1-6.1,11.8-6.1h28.3c5.7,0,8.5,2.8,11.8,6.1c3.6,3.6,8,8,16.5,8.1h71
			c8.4,0,12.9-4.5,16.5-8.1c3.3-3.3,6.1-6.1,11.8-6.1h28.3c5.7,0,8.5,2.8,11.8,6.1c3.6,3.6,8,8,16.5,8.1h71c8.4,0,12.9-4.5,16.5-8.1
			c3.3-3.3,6.1-6.1,11.8-6.1h28.3c5.7,0,8.5,2.8,11.8,6.1c3.6,3.6,8,8,16.5,8.1h63.9c8.4,0,12.9-4.5,16.5-8.1
			c3.3-3.3,6.1-6.1,11.8-6.1h70.9c5.7,0,8.5,2.8,11.8,6.1c3.6,3.6,8,8,16.5,8.1h39.3v0.4h-32.1c-8.5,0-12.9,4.5-16.5,8.1
			c-3.3,3.3-6.1,6.1-11.8,6.1L1123.4,227.2L1123.4,227.2z"/>
	</g>
	<g>
		<pattern  id="SVGID_5_" xlink:href="#New_Pattern_Swatch_1" patternTransform="matrix(1 0 0 -1 298.0283 -16543.2266)">
		</pattern>
		<pattern  id="SVGID_6_" xlink:href="#New_Pattern_Swatch_1" patternTransform="matrix(1 0 0 -1 298.0283 -16543.2266)">
		</pattern>
		<path class="st15" d="M1140.4,142.1c-6.5,0-9.7-2.9-13.3-6.2c-3.9-3.5-8.8-8-17.8-8l-42.5,0c-9.1,0-13.9,4.4-17.8,8
			c-3.7,3.3-6.8,6.2-13.3,6.2H1020c-6.5,0-9.7-2.9-13.3-6.2c-3.9-3.5-8.8-8-17.8-8l-7.1,0c-8.5,0-13,4.5-16.5,8.1
			c-3.3,3.3-6.1,6.1-11.8,6.1H925c-5.7,0-8.5-2.8-11.8-6.1c-3.6-3.6-8.1-8.1-16.5-8.1l-63.8,0c-9,0-13.8,4.4-17.6,8
			c-3.6,3.3-6.7,6.2-13.1,6.2h-30.7c-6.4,0-9.5-2.9-13.1-6.2c-3.8-3.6-8.6-8-17.6-8l-63.8,0c-9,0-13.8,4.4-17.6,8
			c-3.6,3.3-6.7,6.2-13.1,6.2h-30.7c-6.4,0-9.5-2.9-13.1-6.2c-3.9-3.6-8.6-8-17.6-8l-14.2,0c-9.1,0-13.9,4.4-17.8,8
			c-3.7,3.3-6.8,6.2-13.3,6.2h-15.6c-6.5,0-9.7-2.9-13.3-6.2c-3.9-3.5-8.8-8-17.8-8l-42.5,0c-9.1,0-13.9,4.4-17.8,8
			c-3.7,3.3-6.8,6.2-13.3,6.2h-15.6c-6.5,0-9.7-2.9-13.3-6.2c-3.9-3.5-8.8-8-17.8-8l-35.4,0c-8.5,0-12.9,4.5-16.5,8.1
			c-3.3,3.3-6.1,6.1-11.8,6.1h-14.2c-5.7,0-8.5-2.8-11.8-6.1c-3.6-3.6-8.1-8.1-16.5-8.1l-28.3,0c-9,0-13.8,4.4-17.6,8
			c-3.6,3.3-6.7,6.2-13.1,6.2h-30.7c-6.4,0-9.5-2.9-13.1-6.2c-3.8-3.6-8.6-8-17.6-8l-42.5,0c-8,0-12.1,4.5-15.5,8.2
			c-3.1,3.4-5.5,6-10.5,6H51c-5,0-7.4-2.6-10.5-6c-3.3-3.6-7.5-8.2-15.5-8.2l-25,0v-0.4h25c7.9,0,12.1-4.5,15.4-8.2
			c3.1-3.4,5.5-6,10.5-6h122.8c5.7,0,8.5,2.8,11.8,6.1c3.6,3.6,8,8,16.5,8.1h0.1c8.1,0,12.4-4.5,15.8-8.1c3.2-3.4,5.7-6,11-6h80.8
			c5.3,0,7.8,2.7,11,6c3.4,3.6,7.7,8.1,15.8,8.1h42.6c8.4,0,12.9-4.5,16.5-8.1c3.3-3.3,6.1-6.1,11.8-6.1h127.6
			c5.7,0,8.5,2.8,11.8,6.1c3.6,3.6,8,8,16.5,8.1h21.4c8.4,0,12.9-4.5,16.5-8.1c3.3-3.3,6.1-6.1,11.8-6.1h14.2c1,0,2,0.1,2.9,0.3
			l0.7,0.1l0.7-0.1c0.9-0.2,1.9-0.3,2.9-0.3h70.9c5.7,0,8.5,2.8,11.8,6.1c3.6,3.6,8,8,16.5,8.1h7.2c8.4,0,12.9-4.5,16.5-8.1
			c3.3-3.3,6.1-6.1,11.8-6.1h14.2c1,0,2,0.1,2.9,0.3l0.7,0.1l0.7-0.1c0.9-0.2,1.9-0.3,2.9-0.3h70.9c5.7,0,8.5,2.8,11.8,6.1
			c3.6,3.6,8,8,16.5,8.1h7.2c8.4,0,12.9-4.5,16.5-8.1c3.3-3.3,6.1-6.1,11.8-6.1h28.3c5.7,0,8.5,2.8,11.8,6.1c3.6,3.6,8,8,16.5,8.1
			h14.3c8.2,0,12.5-4.5,16-8.1c3.3-3.4,5.8-6.1,11.2-6.1h122.7c5.4,0,8,2.7,11.2,6.1c3.5,3.6,7.8,8.1,16,8.1h39.2v0.4h-25
			c-9.1,0-13.9,4.4-17.8,8c-3.7,3.3-6.8,6.2-13.3,6.2L1140.4,142.1L1140.4,142.1z"/>
	</g>
	<g>
		<pattern  id="SVGID_7_" xlink:href="#New_Pattern_Swatch_1" patternTransform="matrix(1 0 0 -1 298.0283 -16543.2266)">
		</pattern>
		<pattern  id="SVGID_8_" xlink:href="#New_Pattern_Swatch_1" patternTransform="matrix(1 0 0 -1 298.0283 -16543.2266)">
		</pattern>
		<path class="st10" d="M1030.2,269.7c-5.4,0-8-2.7-11.2-6.1c-3.5-3.6-7.8-8.1-16-8.1l-21.3,0c-8.5,0-12.9,4.5-16.5,8.1
			c-3.3,3.3-6.1,6.1-11.8,6.1H925c-5.7,0-8.5-2.8-11.8-6.1c-3.6-3.6-8.1-8.1-16.5-8.1l-70.9,0c-8.5,0-12.9,4.5-16.5,8.1
			c-3.3,3.3-6.1,6.1-11.8,6.1h-28.3c-5.7,0-8.5-2.8-11.8-6.1c-3.6-3.6-8.1-8.1-16.5-8.1l-70.9,0c-8.5,0-12.9,4.5-16.5,8.1
			c-3.3,3.3-6.1,6.1-11.8,6.1h-28.3c-5.7,0-8.5-2.8-11.8-6.1c-3.6-3.6-8.1-8.1-16.5-8.1l-21.3,0c-8.5,0-12.9,4.5-16.5,8.1
			c-3.3,3.3-6.1,6.1-11.8,6.1H407.7c-5.7,0-8.5-2.8-11.8-6.1c-3.6-3.6-8.1-8.1-16.5-8.1l-28.3,0c-8.5,0-12.9,4.5-16.5,8.1
			c-3.3,3.3-6.1,6.1-11.8,6.1h-28.3c-5.7,0-8.5-2.8-11.8-6.1c-3.6-3.6-8.1-8.1-16.5-8.1l-35.4,0c-8.5,0-12.9,4.5-16.5,8.1
			c-3.3,3.3-6.1,6.1-11.8,6.1h-28.3c-5.7,0-8.5-2.8-11.8-6.1c-3.6-3.6-8.1-8.1-16.5-8.1l-35.4,0c-8.5,0-12.9,4.5-16.5,8.1
			c-3.3,3.3-6.1,6.1-11.8,6.1H53.3c-5.7,0-8.5-2.8-11.8-6.1c-3.6-3.6-8.1-8.1-16.5-8.1l-25,0v-0.4h25.1c8.4,0,12.9-4.5,16.5-8.1
			c3.3-3.3,6.1-6.1,11.8-6.1h28.3c5.7,0,8.5,2.8,11.8,6.1c3.6,3.6,8,8,16.5,8.1h35.6c8.4,0,12.9-4.5,16.5-8.1
			c3.3-3.3,6.1-6.1,11.8-6.1h28.3c5.7,0,8.5,2.8,11.8,6.1c3.6,3.6,8,8,16.5,8.1H266c8.4,0,12.9-4.5,16.5-8.1
			c3.3-3.3,6.1-6.1,11.8-6.1h28.3c5.7,0,8.5,2.8,11.8,6.1c3.6,3.6,8,8,16.5,8.1h21.4c9.1,0,13.9-4.4,17.8-8
			c3.7-3.3,6.8-6.2,13.3-6.2H419c6.5,0,9.7,2.9,13.3,6.2c3.9,3.5,8.7,7.9,17.8,8h42.7c9.1,0,13.9-4.4,17.8-8
			c3.7-3.3,6.8-6.2,13.3-6.2h15.6c6.5,0,9.7,2.9,13.3,6.2c3.9,3.5,8.7,7.9,17.8,8h14.3c8.4,0,12.9-4.5,16.5-8.1
			c3.3-3.3,6.1-6.1,11.8-6.1h28.3c5.7,0,8.5,2.8,11.8,6.1c3.6,3.6,8,8,16.5,8.1h71c8.4,0,12.9-4.5,16.5-8.1
			c3.3-3.3,6.1-6.1,11.8-6.1h28.3c5.7,0,8.5,2.8,11.8,6.1c3.6,3.6,8,8,16.5,8.1h71c8.4,0,12.9-4.5,16.5-8.1
			c3.3-3.3,6.1-6.1,11.8-6.1h28.3c5.7,0,8.5,2.8,11.8,6.1c3.6,3.6,8,8,16.5,8.1h7.2c9.1,0,13.9-4.4,17.8-8c3.7-3.3,6.8-6.2,13.3-6.2
			h15.6c6.5,0,9.7,2.9,13.3,6.2c3.9,3.5,8.7,7.9,17.8,8h42.7c9.1,0,13.9-4.4,17.8-8c3.7-3.3,6.8-6.2,13.3-6.2h15.6
			c6.5,0,9.7,2.9,13.3,6.2c3.9,3.5,8.7,7.9,17.8,8h25.1v0.4h-32.1c-8.2,0-12.6,4.5-16,8.1c-3.3,3.4-5.8,6.1-11.2,6.1L1030.2,269.7
			L1030.2,269.7z"/>
	</g>
	<g>
		<pattern  id="SVGID_9_" xlink:href="#New_Pattern_Swatch_1" patternTransform="matrix(1 0 0 -1 298.0283 -16543.2266)">
		</pattern>
		<pattern  id="SVGID_10_" xlink:href="#New_Pattern_Swatch_1" patternTransform="matrix(1 0 0 -1 298.0283 -16543.2266)">
		</pattern>
		<path class="st1" d="M1029.7,184.6c-5.2,0-7.8-2.7-11-6c-2.9-3.1-6.4-6.8-12.4-7.9v-0.3l-28.1,0v0.3c-6.3,1-10.1,4.7-13.1,7.8
			c-3.3,3.3-6.1,6.1-11.8,6.1H925c-5.7,0-8.5-2.8-11.8-6.1c-3.1-3.1-6.8-6.8-13.1-7.8v-0.3l-77.7,0v0.3c-6.3,1-10.1,4.7-13.1,7.8
			c-3.3,3.3-6.1,6.1-11.8,6.1h-28.3c-5.7,0-8.5-2.8-11.8-6.1c-3.1-3.1-6.8-6.8-13.1-7.8v-0.3l-77.7,0v0.3c-6.3,1-10.1,4.7-13.1,7.8
			c-3.3,3.3-6.1,6.1-11.8,6.1h-28.3c-5.7,0-8.5-2.8-11.8-6.1c-3.1-3.1-6.8-6.8-13.1-7.8v-0.3l-6.8,0l0,0.3c-6.3,1-10.1,4.7-13.1,7.8
			c-3.3,3.3-6.1,6.1-11.8,6.1h-28.3c-5.7,0-8.5-2.8-11.8-6.1c-3.1-3.1-6.8-6.8-13.1-7.8v-0.3l-63.5,0v0.3c-6.3,1-10.1,4.7-13.1,7.8
			c-3.3,3.3-6.1,6.1-11.8,6.1h-28.3c-5.7,0-8.5-2.8-11.8-6.1c-3.1-3.1-6.8-6.8-13.1-7.8v-0.3l-13.9,0v0.3c-6.3,1-10.1,4.7-13.1,7.8
			c-3.3,3.3-6.1,6.1-11.8,6.1h-28.3c-5.7,0-8.5-2.8-11.8-6.1c-3.1-3.1-6.8-6.8-13.1-7.8v-0.3l-42.2,0v0.3c-6.3,1-10.1,4.7-13.1,7.8
			c-3.3,3.3-6.1,6.1-11.8,6.1h-28.3c-5.7,0-8.5-2.8-11.8-6.1c-3.1-3.1-6.8-6.8-13.1-7.8v-0.3l-42.2,0v0.3c-6.3,1-10.1,4.7-13.1,7.8
			c-3.3,3.3-6.1,6.1-11.8,6.1H53.3c-5.7,0-8.5-2.8-11.8-6.1c-3.1-3.1-6.8-6.8-13.1-7.8v-0.3l-28.4,0v-0.4h25.1
			c8.4,0,12.9-4.5,16.5-8.1c3.3-3.3,6.1-6.1,11.8-6.1h28.3c5.7,0,8.5,2.8,11.8,6.1c3.6,3.6,8,8,16.4,8.1h35.6
			c8.4,0,12.9-4.5,16.5-8.1c3.3-3.3,6.1-6.1,11.8-6.1h28.3c5.7,0,8.5,2.8,11.8,6.1c3.6,3.6,8,8,16.4,8.1H266
			c8.4,0,12.9-4.5,16.5-8.1c3.3-3.3,6.1-6.1,11.8-6.1h28.3c5.7,0,8.5,2.8,11.8,6.1c3.6,3.6,8,8,16.4,8.1h7.3
			c8.4,0,12.9-4.5,16.5-8.1c3.3-3.3,6.1-6.1,11.8-6.1h28.3c5.7,0,8.5,2.8,11.8,6.1c3.6,3.6,8,8,16.4,8.1h56.9
			c8.4,0,12.9-4.5,16.5-8.1c3.3-3.3,6.1-6.1,11.8-6.1h28.3c5.7,0,8.5,2.8,11.8,6.1c3.6,3.6,8,8,16.4,8.1h0.2
			c8.4,0,12.9-4.5,16.5-8.1c3.3-3.3,6.1-6.1,11.8-6.1h28.3c5.7,0,8.5,2.8,11.8,6.1c3.6,3.6,8,8,16.4,8.1h71.1
			c8.4,0,12.9-4.5,16.5-8.1c3.3-3.3,6.1-6.1,11.8-6.1h28.3c5.7,0,8.5,2.8,11.8,6.1c3.6,3.6,8,8,16.4,8.1h71.1
			c8.4,0,12.9-4.5,16.5-8.1c3.3-3.3,6.1-6.1,11.8-6.1h28.3c5.7,0,8.5,2.8,11.8,6.1c3.6,3.6,8,8,16.4,8.1H996
			c8.4,0,12.9-4.5,16.5-8.1c3.3-3.3,6.1-6.1,11.8-6.1h28.3c5.7,0,8.5,2.8,11.8,6.1c3.6,3.6,8,8,16.4,8.1h35.6
			c7.9,0,12.1-4.5,15.4-8.2c3.1-3.4,5.5-6,10.5-6h26c5,0,7.4,2.6,10.5,6c3.3,3.6,7.5,8.1,15.4,8.2h18v0.4H1120v0.3
			c-6,1-9.5,4.8-12.4,7.9c-3.2,3.4-5.7,6-11,6L1029.7,184.6L1029.7,184.6z"/>
	</g>
	<g>
		<pattern  id="SVGID_11_" xlink:href="#New_Pattern_Swatch_1" patternTransform="matrix(1 0 0 -1 298.0283 -16543.2266)">
		</pattern>
		<pattern  id="SVGID_12_" xlink:href="#New_Pattern_Swatch_1" patternTransform="matrix(1 0 0 -1 298.0283 -16543.2266)">
		</pattern>
		<path class="st16" d="M0,298v-0.4h25c8.4,0,12.9-4.5,16.5-8.1c3.3-3.3,6.1-6.1,11.8-6.1h28.3c5.7,0,8.5,2.8,11.8,6.1
			c3.6,3.6,8.1,8,16.5,8.1h35.5c8.4,0,12.9-4.5,16.5-8.1c3.3-3.3,6.1-6.1,11.8-6.1h28.3c5.7,0,8.5,2.8,11.8,6.1
			c3.6,3.6,8.1,8,16.5,8.1H266c8.4,0,12.9-4.5,16.5-8.1c3.3-3.3,6.1-6.1,11.8-6.1h28.3c5.7,0,8.5,2.8,11.8,6.1c3.6,3.6,8,8,16.5,8.1
			h63.9c8.9,0,13.6-4.4,17.4-8c3.6-3.3,6.6-6.2,12.9-6.2h45.6c6.3,0,9.3,2.9,12.9,6.2c3.8,3.6,8.5,8,17.4,8h63.9
			c8.4,0,12.9-4.5,16.5-8.1c3.3-3.3,6.1-6.1,11.8-6.1h28.3c5.7,0,8.5,2.8,11.8,6.1c3.6,3.6,8,8,16.5,8.1h71c8.4,0,12.9-4.5,16.5-8.1
			c3.3-3.3,6.1-6.1,11.8-6.1h28.3c5.7,0,8.5,2.8,11.8,6.1c3.6,3.6,8.1,8,16.5,8.1h71c8.4,0,12.9-4.5,16.5-8.1
			c3.3-3.3,6.1-6.1,11.8-6.1h28.3c5.7,0,8.5,2.8,11.8,6.1c3.6,3.6,8,8,16.5,8.1h56.8c8.9,0,13.6-4.4,17.4-8
			c3.6-3.3,6.6-6.2,12.9-6.2h45.6c6.3,0,9.3,2.9,12.9,6.2c3.8,3.6,8.5,8,17.4,8h67.6v0.4L0,298L0,298z"/>
	</g>
	<g>
		<pattern  id="SVGID_13_" xlink:href="#New_Pattern_Swatch_1" patternTransform="matrix(1 0 0 -1 298.0283 -16543.2266)">
		</pattern>
		<pattern  id="SVGID_14_" xlink:href="#New_Pattern_Swatch_1" patternTransform="matrix(1 0 0 -1 298.0283 -16543.2266)">
		</pattern>
		<path class="st13" d="M1061.7,99.6c-6.3,0-9.3-2.9-12.9-6.2c-3.8-3.6-8.6-8-17.5-8h-49.6c-8.5,0-12.9,4.5-16.5,8.1
			c-3.3,3.3-6.1,6.1-11.8,6.1H925c-5.7,0-8.5-2.8-11.8-6.1c-3.6-3.6-8.1-8.1-16.5-8.1h-7.1c-9.1,0-13.9,4.4-17.8,8
			c-3.7,3.3-6.8,6.2-13.3,6.2h-15.6c-6.5,0-9.7-2.9-13.3-6.2c-3.8-3.5-8.6-7.8-17.4-8l-0.4,0c-8.5,0-12.9,4.5-16.5,8.1
			c-3.3,3.3-6.1,6.1-11.8,6.1h-14.2c-5.7,0-8.5-2.8-11.8-6.1c-3.6-3.6-8.1-8.1-16.5-8.1h-7.1c-9.1,0-13.9,4.4-17.8,8
			c-3.7,3.3-6.8,6.2-13.3,6.2h-15.6c-6.5,0-9.7-2.9-13.3-6.2c-3.8-3.5-8.6-7.8-17.4-8l-0.4,0c-8.5,0-12.9,4.5-16.5,8.1
			c-3.3,3.3-6.1,6.1-11.8,6.1h-14.2c-5.7,0-8.5-2.8-11.8-6.1c-3.6-3.6-8.1-8.1-16.5-8.1h-63.8c-8.9,0-13.7,4.4-17.5,8
			c-3.6,3.3-6.6,6.2-12.9,6.2h-45.6c-6.3,0-9.3-2.9-12.9-6.2c-3.8-3.6-8.6-8-17.5-8H308.5c-8.5,0-12.9,4.5-16.5,8.1
			c-3.3,3.3-6.1,6.1-11.8,6.1h-28.3c-5.7,0-8.5-2.8-11.8-6.1c-3.6-3.6-8.1-8.1-16.5-8.1H188c-8.5,0-12.9,4.5-16.5,8.1
			c-3.3,3.3-6.1,6.1-11.8,6.1h-28.3c-5.7,0-8.5-2.8-11.8-6.1c-3.5-3.5-7.9-7.9-16.1-8.1l-0.4,0c-8,0-12.1,4.5-15.5,8.2
			c-3.1,3.4-5.5,6-10.5,6H51c-5,0-7.4-2.6-10.5-6C37.1,90,33,85.4,25,85.4l-25,0V85h1212.2v0.4h-74.6c-8.9,0-13.7,4.4-17.5,8
			c-3.6,3.3-6.6,6.2-12.9,6.2H1061.7z"/>
	</g>
	<g>
		<pattern  id="SVGID_15_" xlink:href="#New_Pattern_Swatch_1" patternTransform="matrix(1 0 0 -1 298.0283 -16543.2266)">
		</pattern>
		<pattern  id="SVGID_16_" xlink:href="#New_Pattern_Swatch_1" patternTransform="matrix(1 0 0 -1 298.0283 -16543.2266)">
		</pattern>
		<path class="st9" d="M925,14.6c-5.7,0-8.5-2.8-11.8-6.1c-3.6-3.6-8.1-8.1-16.5-8.1H0V0h1212.2v0.4H981.7c-8.5,0-12.9,4.5-16.5,8.1
			c-3.3,3.3-6.1,6.1-11.8,6.1L925,14.6L925,14.6z"/>
	</g>
	<g>
		<pattern  id="SVGID_17_" xlink:href="#New_Pattern_Swatch_1" patternTransform="matrix(1 0 0 -1 298.0283 -16543.2266)">
		</pattern>
		<pattern  id="SVGID_18_" xlink:href="#New_Pattern_Swatch_1" patternTransform="matrix(1 0 0 -1 298.0283 -16543.2266)">
		</pattern>
		<rect x="0" y="340.2" class="st6" width="1212.2" height="0.4"/>
	</g>
	<g>
		<pattern  id="SVGID_19_" xlink:href="#New_Pattern_Swatch_1" patternTransform="matrix(1 0 0 -1 298.0283 -16543.2266)">
		</pattern>
		<pattern  id="SVGID_20_" xlink:href="#New_Pattern_Swatch_1" patternTransform="matrix(1 0 0 -1 298.0283 -16543.2266)">
		</pattern>
		<rect x="0" y="382.7" class="st5" width="1212.2" height="0.4"/>
	</g>
	<g>
		<pattern  id="SVGID_21_" xlink:href="#New_Pattern_Swatch_1" patternTransform="matrix(1 0 0 -1 298.0283 -16543.2266)">
		</pattern>
		<pattern  id="SVGID_22_" xlink:href="#New_Pattern_Swatch_1" patternTransform="matrix(1 0 0 -1 298.0283 -16543.2266)">
		</pattern>
		<rect x="0" y="425.2" class="st14" width="1212.2" height="0.4"/>
	</g>
	<g>
		<pattern  id="SVGID_23_" xlink:href="#New_Pattern_Swatch_1" patternTransform="matrix(1 0 0 -1 298.0283 -16543.2266)">
		</pattern>
		<pattern  id="SVGID_24_" xlink:href="#New_Pattern_Swatch_1" patternTransform="matrix(1 0 0 -1 298.0283 -16543.2266)">
		</pattern>
		<rect x="0" y="467.7" class="st11" width="1212.2" height="0.4"/>
	</g>
	<g>
		<pattern  id="SVGID_25_" xlink:href="#New_Pattern_Swatch_1" patternTransform="matrix(1 0 0 -1 298.0283 -16543.2266)">
		</pattern>
		<pattern  id="SVGID_26_" xlink:href="#New_Pattern_Swatch_1" patternTransform="matrix(1 0 0 -1 298.0283 -16543.2266)">
		</pattern>
		<rect x="0" y="510.2" class="st8" width="1212.2" height="0.4"/>
	</g>
	<g>
		<pattern  id="SVGID_27_" xlink:href="#New_Pattern_Swatch_1" patternTransform="matrix(1 0 0 -1 298.0283 -16543.2266)">
		</pattern>
		<pattern  id="SVGID_28_" xlink:href="#New_Pattern_Swatch_1" patternTransform="matrix(1 0 0 -1 298.0283 -16543.2266)">
		</pattern>
		<rect x="0" y="552.8" class="st4" width="1212.2" height="0.4"/>
	</g>
	<g>
		<pattern  id="SVGID_29_" xlink:href="#New_Pattern_Swatch_1" patternTransform="matrix(1 0 0 -1 298.0283 -16543.2266)">
		</pattern>
		<pattern  id="SVGID_30_" xlink:href="#New_Pattern_Swatch_1" patternTransform="matrix(1 0 0 -1 298.0283 -16543.2266)">
		</pattern>
		<rect x="0" y="595.3" class="st3" width="1212.2" height="0.4"/>
	</g>
	<g>
		<pattern  id="SVGID_31_" xlink:href="#New_Pattern_Swatch_1" patternTransform="matrix(1 0 0 -1 298.0283 -16543.2266)">
		</pattern>
		<pattern  id="SVGID_32_" xlink:href="#New_Pattern_Swatch_1" patternTransform="matrix(1 0 0 -1 298.0283 -16543.2266)">
		</pattern>
		<rect x="0" y="637.8" class="st12" width="1212.2" height="0.4"/>
	</g>
</g>
</svg>
