<?xml version="1.0" encoding="utf-8"?>
<!-- Generator: Adobe Illustrator 16.0.4, SVG Export Plug-In . SVG Version: 6.00 Build 0)  -->
<!DOCTYPE svg PUBLIC "-//W3C//DTD SVG 1.1//EN" "http://www.w3.org/Graphics/SVG/1.1/DTD/svg11.dtd">
<svg version="1.1" id="Layer_1" xmlns="http://www.w3.org/2000/svg" xmlns:xlink="http://www.w3.org/1999/xlink" x="0px" y="0px"
	 width="209.778px" height="54.08px" viewBox="0 0 209.778 54.08" enable-background="new 0 0 209.778 54.08" xml:space="preserve">
<g>
	<path d="M0,14.577h10.069v4.436c2.324-3.662,5.633-5.352,10.562-5.352c5.282,0,8.873,2.112,11.126,6.478
		c2.464-4.295,6.479-6.478,11.83-6.478c4.578,0,8.803,1.761,11.267,4.647c1.972,2.394,2.605,4.929,2.605,11.055v23.591H46.897
		V29.505c0-4.859-2.112-7.675-5.844-7.675c-4.859,0-7.113,3.873-7.113,12.182v18.942H23.378V30.561c0-6.407-1.479-8.731-5.563-8.731
		c-2.042,0-3.874,0.916-5.282,2.535c-1.408,1.62-1.972,4.506-1.972,9.718v18.872H0V14.577z"/>
	<path d="M100.559,33.73c0,12.323-7.675,20.35-19.436,20.35c-11.759,0-19.435-8.026-19.435-20.35c0-12.324,7.676-20.28,19.435-20.28
		C92.883,13.45,100.559,21.477,100.559,33.73z M72.462,33.801c0,7.604,3.169,12.111,8.661,12.111c5.493,0,8.662-4.507,8.662-12.111
		c0-7.747-3.168-12.182-8.662-12.182C75.631,21.619,72.462,26.125,72.462,33.801z"/>
	<path d="M104.854,14.577h10.07v5c2.042-3.803,5.845-5.915,10.633-5.915c1.197,0,1.831,0.07,2.817,0.422v9.154
		c-1.127-0.282-1.832-0.353-2.958-0.353c-7.183,0-9.999,3.662-9.999,13.098v16.971h-10.563V14.577z"/>
	<path d="M132.741,14.577h10.07v5c2.041-3.803,5.844-5.915,10.632-5.915c1.198,0,1.831,0.07,2.816,0.422v9.154
		c-1.127-0.282-1.83-0.353-2.957-0.353c-7.183,0-10,3.662-10,13.098v16.971h-10.562V14.577z"/>
	<path d="M160.979,0h10.562v10.14h-10.562V0z M160.979,14.577h10.562v38.377h-10.562V14.577z"/>
	<path d="M198.512,26.829c-0.212-4.155-1.972-5.774-6.267-5.774c-3.311,0-5.282,1.408-5.282,3.732c0,1.689,1.268,2.746,4.155,3.521
		l7.604,1.973c7.606,1.971,11.057,5.492,11.057,11.337c0,7.675-6.479,12.463-16.9,12.463c-10.984,0-17.253-5-17.394-13.942h10.774
		c-0.07,4.084,2.253,6.196,6.689,6.196c3.521,0,5.845-1.479,5.845-3.731c0-2.394-1.901-3.662-7.111-4.789
		c-7.043-1.479-9.577-2.464-11.972-4.646c-2.112-1.901-3.311-4.719-3.311-7.535c0-7.394,6.339-12.182,16.268-12.182
		c10.281,0,16.267,4.999,16.195,13.379H198.512z"/>
</g>
</svg>
