<?xml version="1.0" encoding="utf-8"?>
<!-- Generator: Adobe Illustrator 16.0.4, SVG Export Plug-In . SVG Version: 6.00 Build 0)  -->
<!DOCTYPE svg PUBLIC "-//W3C//DTD SVG 1.1//EN" "http://www.w3.org/Graphics/SVG/1.1/DTD/svg11.dtd">
<svg version="1.1" id="Layer_1" xmlns="http://www.w3.org/2000/svg" xmlns:xlink="http://www.w3.org/1999/xlink" x="0px" y="0px"
	 width="283.5px" height="283.5px" viewBox="0 0 283.5 283.5" style="enable-background:new 0 0 283.5 283.5;" xml:space="preserve"
	>
<style type="text/css">
<![CDATA[
	.st0{fill:#FFFFFF;}
]]>
</style>
<g>
	<path class="st0" d="M181.8,250.2c-1.1,0.3-2,0.6-3.1,0.9c1.6,6,3.1,11.7,4.7,18c-8-4.9-15.4-9.5-23.2-14.3
		c2.4,9,4.6,17.4,6.8,25.7c0.3,0,0.6,0,1,0c0.7-0.4,1.3-0.7,2.2-1.2c-1.5-5.8-3-11.5-4.6-17.7c7.8,4.8,15.3,9.4,23.3,14.3
		C186.4,267.1,184.1,258.7,181.8,250.2z"/>
	<path class="st0" d="M28.6,162.2c-0.2-1.8,0.4-3.6-1.8-4c-4.5-0.7-5.7-3.5-5.3-7.6c0-0.4,0-0.8-0.1-1.2c-1.1-3.5,0.5-5.6,3.7-6.6
		c2.4-0.7,2.4-2.3,1.7-4.5c-8.6,4.5-17.1,9-25.5,13.5c0,0.2,0,0.3,0,0.5c0.8,0.2,1.7,0.3,2.5,0.6c7.3,2.8,14.6,5.5,22,8.3
		C26.6,161.6,27.5,161.8,28.6,162.2z M8.5,151.5c3.4-1.7,6.3-3.3,9.6-5c0.2,3,0.4,5.6,0.5,8.6C15.2,153.9,12.1,152.8,8.5,151.5z"/>
	<path class="st0" d="M206.5,212.4c1.5,0,3,0,4.9,0c5.9-41,11.9-81.7,17.8-122.7c-2.9,0-5.5,0-8.2,0c0.2-2.1,1.2-4.3,0.5-5.6
		c-0.7-1.3-3.1-1.7-4.8-2.3c-23.7-8-47.1-6.5-70,3.1c-4.2,1.8-7.4,1.7-11.5,0c-23.1-9.7-46.6-11.2-70.4-2.7
		c-4.1,1.5-4.1,1.5-3.2,5.8c0.1,0.4,0.1,0.9,0.1,1.6c-2.8,0-5.4,0-8.3,0c6,41.1,11.9,81.9,17.8,122.8c1.1,0,2,0,2.9,0
		c18.3,0,36.7,0,55,0c1,0,2.2,0.4,2.8,1.1c5,6.1,12.9,6.4,18.1,0.5c1.1-1.3,2.2-1.7,3.9-1.7C171.5,212.4,189,212.4,206.5,212.4z
		 M140.8,203.6c-5.6-3.6-12.6-4.5-19.6-5.1c-14.3-1.2-28.6-0.7-42.8,2.1c-0.3,0.1-0.6,0.1-1.1,0.1c-1-7.3-2-14.6-3-21.9
		c-2.5-18.2-5-36.4-7.5-54.7c-1.5-10.8-2.9-21.5-4.5-32.3c-0.2-1.7,0.3-2.4,1.8-3c12.8-5.2,26.1-6.6,39.8-5.4
		c12.6,1,24.7,4.4,36.2,9.6c0.8,0.4,2.2,0.1,3-0.3c14.2-6.5,29.2-9.9,44.8-9.8c10.6,0.1,20.8,1.9,30.7,5.9c1.6,0.6,2,1.3,1.7,3
		c-2.5,18.1-5,36.3-7.5,54.4c-2.3,17-4.7,33.9-7,50.8c-0.2,1.2-0.4,2.4-0.5,3.4C183.7,197.7,162.2,195,140.8,203.6z"/>
	<path class="st0" d="M242.5,197.4c-0.6,0.9-1.2,1.8-1.8,2.7c5.1,3.5,10,6.8,15.4,10.5c-9.2,1.5-17.8,3-26.9,4.5
		c7.7,5.2,14.9,10,22.1,14.9c0.7-1.1,1.2-1.8,1.7-2.7c-5-3.4-9.9-6.7-15.3-10.4c9.2-1.5,17.7-2.9,27-4.5
		C256.9,207.2,249.8,202.4,242.5,197.4z"/>
	<path class="st0" d="M63.1,226.3c-0.8-0.9-1.4-1.6-2.1-2.5c-4.6,4.1-9.2,8-14.1,12.3c0.9-9.3,1.7-17.9,2.5-27.2
		c-6.9,6.1-13.4,11.8-20,17.5c0.8,0.9,1.5,1.6,2.2,2.4c4.6-4,9.1-7.9,14-12.2c-0.9,9.3-1.7,17.9-2.5,27.2
		C50,237.8,56.5,232.1,63.1,226.3z"/>
	<path class="st0" d="M46.3,79c0.8-1,1.4-1.7,2-2.6c-4.8-3.9-9.4-7.7-14.4-11.8c9.4-0.7,18-1.3,27.3-2C54,56.7,47.3,51.3,40.6,45.8
		c-0.8,0.9-1.3,1.6-2.1,2.5c4.7,3.9,9.3,7.7,14.3,11.8c-9.4,0.7-18,1.3-27.2,2C32.7,67.9,39.4,73.4,46.3,79z"/>
	<path class="st0" d="M281.7,162.6c-9.1-2-17.6-3.9-26.1-5.8c-0.3,1.3-0.5,2.2-0.7,3.2c6,1.3,11.8,2.6,18.2,4.1
		c-8,4.8-15.5,9.3-23.5,14c9.1,2,17.5,3.9,26,5.8c0.2-1.2,0.4-2.1,0.6-3.2c-6-1.3-11.7-2.6-18-4.1
		C266.2,171.8,273.7,167.4,281.7,162.6z"/>
	<path class="st0" d="M243.4,88.9c0,7.4,5.9,13.4,13.1,13.4c7.4,0,13.3-5.8,13.4-13.2c0.1-7.4-5.6-13.2-13.1-13.3
		C249.3,75.8,243.4,81.6,243.4,88.9z M256.9,78.9c5.2-0.1,9.9,4.6,10,10c0.1,5.4-4.8,10.1-10.4,10.1c-5.5,0-10-4.5-10-9.9
		C246.6,83.6,251.3,79,256.9,78.9z"/>
	<path class="st0" d="M222,226c-5.1,0.8-8.6,3.8-9.9,8.9c-1.2,4.6,0.4,8.4,3.6,11.9c2.6-2.3,5.1-4.4,7.6-6.6
		c-0.8-0.8-1.3-1.4-2.1-2.2c-1.6,1.4-3.1,2.6-4.8,4.1c-2.2-3.4-1.9-7.2,0.5-10c2.6-3,7.4-3.8,11.5-1.9c4.2,2,6.8,6.6,5.7,11.1
		c-0.5,1.9-1.7,3.8-3,5.3c-2.3,2.6-5.5,2.8-8.9,2.5c-0.1,1.1-0.1,2.1-0.2,3.1c5.7,0.6,10.2-1.1,13.2-5.8c3.1-4.7,2.9-9.7-0.1-14.4
		C232.2,227.2,227.6,225.2,222,226z"/>
	<path class="st0" d="M252.8,116.4c3.7-0.7,7.1-1.4,11.3-2.2c-0.8,1.2-1.1,1.9-1.6,2.4c-2.1,2.2-4.1,4.5-6.3,6.5
		c-1.9,1.6-1.5,3.2-0.6,5.3c3-3.2,5.9-6.3,8.8-9.4c0.6,0.8,1,1.5,1.5,2c2.1,2.3,4.8,2.8,7.7,1.9c2.7-0.8,4.8-3.1,4.7-5.7
		c-0.1-3-0.6-5.9-1-9.1c-8.7,1.8-16.8,3.4-25.1,5.1C252.5,114.4,252.6,115.2,252.8,116.4z M274.9,112c0.7,2.6,1.4,5.2-0.8,7
		c-1.1,0.9-3.2,1.3-4.6,0.9c-2.6-0.8-2.9-3.5-3.3-6.1C269.2,113.2,272,112.6,274.9,112z"/>
	<path class="st0" d="M168.2,20.7c0.2,0,0.4-0.1,0.6-0.1c0.4,0.6,0.8,1.2,1.1,1.8c1.1,2.7,2.3,5.4,3.1,8.3c0.7,2.5,2.2,3,4.7,3
		c-1.6-4.1-3.2-8-4.8-12.1c0.6-0.1,1-0.2,1.3-0.2c3.6-0.6,6-3.1,6.3-6.5c0.3-3.5-1.4-6.3-5-7.5c-2.2-0.8-4.4-1.2-6.9-1.9
		c-2,8.3-4,16.4-6.1,24.7c1.1,0.3,2,0.5,3.1,0.8C166.5,27.4,167.4,24.1,168.2,20.7z M171,9.3c4.9,0.8,7,2.9,6.2,6
		c-0.9,3.3-3.4,4.1-8.3,2.5C169.6,14.8,170.3,12.1,171,9.3z"/>
	<path class="st0" d="M94.7,38.5c-0.6-3.9-3.7-7-3.3-11.5c4,2.2,7.5,4,10.8,6.1c2.3,1.5,4.2,1.3,6.3-0.5c-5.2-2.9-10.3-5.6-15.5-8.5
		c2-4.9,4-9.6,6-14.5c-2.8,0.4-4.2,1.6-5,3.9c-1.3,3.7-2.9,7.3-4.5,11.3c-1.5-3.6-2.8-6.8-4.1-10c-1.1,0.5-1.9,0.8-3,1.2
		c3.2,7.9,6.3,15.7,9.5,23.6C93,39.2,93.9,38.9,94.7,38.5z"/>
	<path class="st0" d="M33.3,179.4c-2.1,0.6-3.9,1.3-5.8,1.7c-1.8,0.3-3.5,2-5.6,0.4c2.4-3.4,4.5-6.8,7-9.9c1.7-2.1,1.3-4,0.1-6.3
		c-3.4,5-6.7,9.8-10.1,14.7c-4.7-2.5-9.2-4.9-13.9-7.4c0.2,2.3,0.6,4,2.8,5c3.7,1.7,7.3,3.8,11.3,5.9c-3.7,1.1-6.9,2.1-10.3,3.2
		c0.3,1.1,0.6,2,1,3.1c8.2-2.4,16.2-4.8,24.4-7.2C34,181.3,33.6,180.4,33.3,179.4z"/>
	<path class="st0" d="M213.7,53c1.4-9.5,2.8-18.9,4.3-28.7c-8.4,5.4-16.4,10.6-24.4,15.7c1.7,1.9,3.3,2.2,5.1,0.5
		c0.6-0.6,1.4-1.2,2.2-1.4c0.8-0.2,1.9-0.4,2.5,0c2.4,1.4,4.8,2.9,7.1,4.5c0.6,0.4,1,1.4,1.1,2.2c0.1,0.9-0.1,1.9-0.4,2.8
		C210.3,51,211.2,52.2,213.7,53z M205,36.5c3-2,5.7-3.8,8.9-6c-0.6,3.8-1.1,7-1.7,10.7C209.7,39.5,207.5,38.1,205,36.5z"/>
	<path class="st0" d="M32.7,100.4c-2.5-2-3-4.2-1.1-6.9c0.7-1,1.2-2.1,1.5-3.2c0.8-3,2.7-3.8,5.5-3.3c0.2,0,0.3,0,0.5,0
		c2.5,0.6,3.4-0.8,3.8-3.2c-9.5,0-18.9,0-28.8,0c6.4,7.4,12.5,14.5,18.7,21.7C34.6,103.4,34.6,101.8,32.7,100.4z M20.8,86.8
		c3.6,0,6.9,0,10.6,0c-1.2,2.7-2.3,5-3.6,7.8C25.3,91.9,23.1,89.5,20.8,86.8z"/>
	<path class="st0" d="M139.1,22.2c2,0,4.4,0.2,6.7,0c3.2-0.3,5.4,0.7,6,4.1c0.5,2.3,1.9,3.2,4.5,2.4c-3.7-8.8-7.4-17.4-11.4-26.7
		c-4.4,9.1-8.5,17.6-12.6,26.2C137.8,29.3,136.7,24.1,139.1,22.2z M144.8,9.2c1.4,3.5,2.7,6.6,4.1,9.9c-2.9,0-5.5,0-8.6,0
		C141.8,15.8,143.2,12.8,144.8,9.2z"/>
	<path class="st0" d="M188.9,247c0.5,0.9,0.9,1.7,1.4,2.6c3.1-1.6,6-3.2,9.1-4.8c1.5,2.8,2.9,5.5,4.4,8.3c-2.9,1.6-5.8,3.1-8.8,4.8
		c0.5,1,1,1.8,1.4,2.6c3-1.6,5.8-3.1,8.8-4.6c1.1,2.1,2.1,4,3.2,6.1c-3.2,1.7-6.1,3.3-9.1,4.9c0.6,1,1,1.7,1.5,2.6
		c4-2.1,7.9-4.2,11.9-6.4c-4-7.6-8-15-12-22.5C196.8,242.8,192.9,244.8,188.9,247z"/>
	<path class="st0" d="M69.1,231.2c-0.6,0.9-1.2,1.6-1.8,2.4c2.9,2.1,5.5,4,8.3,6.1c-1.9,2.7-3.7,5.1-5.5,7.6c-2.8-2-5.4-3.9-8.1-5.8
		c-0.6,0.9-1.2,1.6-1.7,2.4c2.8,2,5.3,3.9,8,5.9c-1.4,1.9-2.7,3.7-4,5.6c-2.9-2.1-5.6-4-8.4-6c-0.6,0.9-1.1,1.6-1.7,2.5
		c3.7,2.7,7.3,5.2,11,7.9c5.1-7.1,10-13.9,14.9-20.7C76.4,236.4,72.8,233.8,69.1,231.2z"/>
	<path class="st0" d="M281.1,148.7c0-4.5,0-8.9,0-13.2c-8.5,0-16.8,0-25.2,0c0,4.6,0,8.9,0,13.4c1,0,1.8,0,2.9,0c0-3.4,0-6.6,0-10.1
		c3.2,0,6.2,0,9.5,0c0,3.2,0,6.5,0,9.7c1.1,0,2,0,3,0c0-3.4,0-6.5,0-9.9c2.3,0,4.5,0,7.1,0c0,3.4,0,6.8,0,10.1
		C279.6,148.7,280.4,148.7,281.1,148.7z"/>
	<path class="st0" d="M30.3,204.1c-0.1-1.5-0.2-3-0.2-4.5c0.1-2.2,1.2-3.6,3.4-4.1c2.1-0.5,3.8,0.1,5,1.9c1.2,1.8,1.1,3.6-0.1,5.4
		c-0.4,0.6-0.9,1-1.5,1.6c0.7,0.8,1.4,1.6,2,2.3c3.4-2.9,4.4-6.1,3-9.5c-1.3-3.3-4.4-5.2-7.9-5c-4.1,0.2-7.1,3.1-7.2,7.2
		c-0.1,2.1,0.6,4.2,0.3,6.2c-0.1,1.2-1.1,2.9-2.1,3.3c-1,0.4-3.1-0.3-3.7-1.2c-1-1.5-1.1-3.5-1.6-5.3c0.2-0.1,0.5-0.2,0.7-0.3
		c-0.7-0.4-1.5-0.9-2.3-1.4c-1.9,3.6-1.5,6.9,1,9.5c2,2.1,4.9,2.8,7.5,1.7C29.5,210.7,30.6,208.3,30.3,204.1z"/>
	<path class="st0" d="M117.5,253.8c-3.7-0.9-7.3,0.7-9,3.9c-1.8,3.5-1.1,7.1,2,9.7c1.5,1.2,3.2,2.2,4.6,3.5c2.2,2,1.6,4.6-1.2,5.5
		c-2.2,0.7-3.9-0.1-6-3c-0.8,0.3-1.7,0.7-2.7,1.1c0.5,0.9,0.8,1.7,1.3,2.3c2,2.6,4.8,3.4,7.9,2.8c2.6-0.5,4.4-2.1,5.1-4.8
		c0.8-3.2-0.9-5.2-3.1-7c-1.2-1-2.6-1.9-3.8-2.9c-1.7-1.4-2.4-3.2-1.3-5.3c0.9-1.9,2.4-3.1,4.5-2.9c2.3,0.2,3.8,1.6,4.3,3.9
		c0.1,0.6,0.2,1.2,0.3,1.7c1,0,1.9,0,2.8,0c0.1-0.3,0.2-0.6,0.2-0.8C123.5,257.7,121.1,254.6,117.5,253.8z"/>
	<path class="st0" d="M79.7,265.1c2.2-2.5,4.8-4.7,7.2-7c1.6-1.5,3.2-3,5.1-4.9c-0.3,6.1-0.4,11.6-0.8,17c-0.2,2.4,0.3,3.8,3.2,4.1
		c0.3-9.5,0.7-18.8,1-28.8c-7.2,6.9-14.1,13.4-20.9,19.9C76.6,267.2,78,267,79.7,265.1z"/>
	<path class="st0" d="M127.2,3.6c-3-0.4-4,1-4.1,3.4c0,0.5-0.2,1.1-0.3,1.6c-1,4.8-1.9,9.6-3,14.9c-3.3-5.2-6.2-10-9.2-14.7
		c-1.6-2.6-1.6-2.6-4.7-1.2c5,7.9,10.1,15.7,15.5,24.2C123.4,22,125.3,12.8,127.2,3.6z"/>
	<path class="st0" d="M231,71.5c3.4-2.5,6.5-5,9.8-7.5c1.8,2.3,3.5,4.5,5.3,6.8c0.8-0.6,1.6-1.2,2.4-1.8c-1.8-2.4-3.5-4.6-5.2-6.9
		c1.9-1.4,3.6-2.8,5.5-4.2c1.9,2.4,3.6,4.7,5.5,7.1c0.8-0.7,1.5-1.2,2.4-1.9c-2.5-3.3-5-6.4-7.4-9.7c-6.9,5.2-13.4,10.3-20.2,15.4
		C229.7,69.8,230.3,70.6,231,71.5z"/>
	<path class="st0" d="M220.8,60.4C226,54.8,231,49.5,236.1,44c1.5,1.4,2.9,2.6,4.4,3.9c0.8-0.8,1.4-1.4,2.1-2.2
		c-3.7-3.5-7.4-6.9-11.1-10.3c-0.8,0.9-1.4,1.5-1.9,2.1c1.4,1.4,2.6,2.7,4.1,4.3c-5.1,5.5-10.1,10.9-15.2,16.3
		C219.3,58.9,220,59.6,220.8,60.4z"/>
	<path class="st0" d="M54.3,37.8c4.8,5.9,9.4,11.5,14.1,17.3c1-0.7,1.7-1.3,2.6-2c-4.7-5.8-9.4-11.6-14.1-17.4
		c1.6-1.3,3-2.6,4.5-3.9c-0.7-0.8-1.3-1.5-1.9-2.2c-3.9,3.2-7.8,6.3-11.7,9.5c0.7,0.8,1.2,1.5,1.9,2.4C51.3,40.2,52.8,39,54.3,37.8z
		"/>
	<path class="st0" d="M83.8,44.2c-4.5-7.4-8.8-14.5-13.2-21.7c-1.1,0.7-1.9,1.2-2.8,1.8c4.4,7.3,8.8,14.4,13.2,21.7
		C82.1,45.3,82.9,44.8,83.8,44.2z"/>
	<path class="st0" d="M246,189.3c7.8,3.4,15.5,6.7,23.4,10.1c0.4-1.1,0.8-1.9,1.3-3c-7.9-3.4-15.6-6.7-23.4-10.1
		C246.8,187.4,246.4,188.2,246,189.3z"/>
	<path class="st0" d="M197,14.4c-1.1-0.5-1.9-0.8-3-1.2c-3.3,8-6.5,15.7-9.8,23.5c1.1,0.5,2,0.8,3,1.2C190.5,30,193.7,22.3,197,14.4
		z"/>
	<path class="st0" d="M142.2,264.7c-2.7,0.1-4.8,2.3-4.7,5c0.1,2.9,2.2,4.9,5.1,4.8c2.7-0.1,4.8-2.2,4.7-5
		C147.2,266.7,145.1,264.6,142.2,264.7z"/>
	<path class="st0" d="M16.5,125.4c2.7,0.1,5-1.8,5.2-4.5c0.2-2.8-1.9-5.1-4.7-5.3c-2.7-0.1-5,1.8-5.2,4.5
		C11.6,123,13.6,125.2,16.5,125.4z"/>
	<path class="st0" d="M267.3,73.7c-0.7-0.7-1.3-1.9-2-2c-0.7-0.1-1.6,0.9-3.1,1.8c1.5,1,2.3,2,3.1,2
		C265.9,75.5,266.6,74.3,267.3,73.7z"/>
	<path class="st0" d="M274,94.4c0.7,0.1,1.9-1,2-1.7c0.1-0.8-0.8-1.7-1.2-2.6c-0.3,0-0.6,0-0.9-0.1c-0.6,0.8-1.6,1.6-1.6,2.4
		C272.2,93.1,273.3,94.3,274,94.4z"/>
	<path class="st0" d="M168.5,128.5c-0.8-7.4-1.4-14.8-2-22.2c-5.2,0-10.4,0-16,0c2.1,2.8,1.5,5.8,0.9,8.7c-3,13.7-6,27.5-9.2,41.2
		c-1.6,6.9-2.2,14.1-6.9,20.2c4.2,0,8.2,0,12.1,0c-3-6.8,1.3-12.7,1.6-19.1c4.8,0,9.2,0,13.8,0c0.5,4.1,0.9,8.1,1.4,12.2
		c0.3,2.5,1,4.9-2.1,6.9c5,0,9.2,0,13.2,0c-0.7-2.1-1.7-4.1-1.9-6.2C171.7,156.3,170,142.4,168.5,128.5z M150.6,150.2
		c2.4-11.3,4.8-22.5,7.2-33.7c0.2,0,0.3,0,0.5,0c1.3,11.2,2.5,22.4,3.8,33.7C158.3,150.2,154.5,150.2,150.6,150.2z"/>
	<path class="st0" d="M130.2,106.4c3.1,4.4,2.7,9.1,1.9,13.6c-1.8,11.3-3.9,22.5-5.8,33.8c-0.3,1.9-0.7,3.8-1,5.8
		c-0.2,0-0.3,0-0.5,0c-3.9-17.7-7.7-35.4-11.6-53.2c-3.8,0-7.9,0-11.7,0c1.4,3.5,3.3,6.8,4.2,10.5c4,15.4,7.8,30.8,11.7,46.2
		c1.1,4.5,2.7,8.7,5.8,12.2c1.2,1.3,2.6,2.4,4.1,3.7c5.2-24.6,10.2-48.6,15.3-72.5C138.6,106.4,134.5,106.4,130.2,106.4z"/>
	<path class="st0" d="M96.6,135.5c-2.7-1.8-5.4-3.7-7.8-5.9c-3.9-3.7-4.6-8.3-2.9-13.3c1.4-4.1,4.9-5.5,8.9-3.6
		c1.4,0.7,2.6,1.7,4,2.7c-0.1-2.5-0.4-5-0.4-7.4c0-1.7-0.8-2.4-2.2-2.9c-7.5-3-15.7,1.1-18,9.5c-2.4,9.1,0,17.3,6.3,24.1
		c2.7,2.8,5.9,5.2,8.9,7.7c5.3,4.4,6.9,10.1,6.1,16.8c-0.4,3.1-1.7,5.7-4.8,6.8c-3.2,1.2-5.8,0-8.1-2c-1.4-1.2-2.6-2.8-3.8-4.2
		c-0.2,0.1-0.4,0.3-0.5,0.4c0.4,2.7,0.6,5.3,1.2,8c0.2,1,1,2.2,1.8,2.8c8.5,5.7,18.7,1.7,21.7-8.6
		C109.4,157.4,108.6,143.4,96.6,135.5z"/>
	<path class="st0" d="M205.9,118.5c0.6-4.3,1.1-8.5,1.6-12.5c-8.7,0-17.1,0-24.9,0c0.3,3.8,1,7.2,0.7,10.5
		c-1,15.4-2.3,30.8-3.6,46.2c-0.4,4.6-0.1,9.5-3.5,13.6c4.3,0,8.3,0,11.9,0c-0.3-2.4-0.9-4.7-0.8-6.9c0.7-8.9,1.7-17.8,2.6-26.7
		c0.1-0.6,0.4-1.3,0.8-1.6c2.6-1.3,8.7,0.4,10.7,3c0.5-3.7,1-7.2,1.6-10.9c-4.1,2.5-8.1,1-12.3,1.5c0.7-7.4,1.3-14.4,1.9-21.6
		C197.9,113.8,203.9,111.1,205.9,118.5z"/>
</g>
</svg>
